<?xml version="1.0" encoding="UTF-8" standalone="no"?><!-- Generator: Gravit.io --><svg xmlns="http://www.w3.org/2000/svg" xmlns:xlink="http://www.w3.org/1999/xlink" style="isolation:isolate" viewBox="0 0 44.051 65.881" width="44.051pt" height="65.881pt"><defs><clipPath id="_clipPath_1MmPA8sbXMB1H8LElG4pLFQ4epMJlCKZ"><rect width="44.051" height="65.881"/></clipPath></defs><g clip-path="url(#_clipPath_1MmPA8sbXMB1H8LElG4pLFQ4epMJlCKZ)"><path d=" M 41.444 18.009 L 10.895 0.38 C 9.936 -0.168 8.749 -0.121 7.837 0.502 L 7.837 0.502 L 1.13 4.376 L 4.248 8.605 L 5.411 9.937 L 5.411 40.203 C 5.412 42.005 6.372 43.67 7.932 44.572 L 30.798 57.791 L 31.032 59.062 L 35.697 65.601 L 42.873 61.382 L 42.91 61.36 L 42.959 61.333 L 42.959 61.328 C 43.641 60.909 44.055 60.164 44.051 59.363 L 44.051 22.518 C 44.052 20.657 43.057 18.937 41.444 18.009 L 41.444 18.009 Z " fill="rgb(146,99,193)"/><path d=" M 34.302 22.207 L 3.392 4.372 C 2.692 3.968 1.83 3.969 1.13 4.373 C 0.431 4.777 0 5.524 0 6.332 L 0 43.332 C 0 45.134 0.961 46.799 2.521 47.701 L 33.428 65.569 C 34.145 65.984 35.03 65.985 35.747 65.571 C 36.465 65.156 36.907 64.391 36.907 63.562 L 36.907 26.717 C 36.907 24.856 35.914 23.137 34.302 22.207 L 34.302 22.207 Z " fill="rgb(132,68,178)"/><g><path d=" M 35.738 65.573 L 35.694 65.6 L 35.694 65.593 C 35.706 65.585 35.723 65.581 35.738 65.573 Z " fill="rgb(187,206,225)"/><path d=" M 36.906 63.564 L 36.906 26.719 C 36.894 26.111 36.774 25.51 36.551 24.944 L 43.722 20.814 C 43.926 21.36 44.035 21.937 44.046 22.52 L 44.046 59.364 C 44.049 60.166 43.631 60.912 42.946 61.329 L 42.946 61.334 L 42.899 61.361 L 42.862 61.383 L 35.746 65.565 C 36.465 65.156 36.909 64.391 36.906 63.564 Z " fill="rgb(114,49,163)"/></g><g><path d=" M 10.119 19.866 C 9.711 20.456 9.532 21.173 9.613 21.885 L 9.599 26.306 L 9.599 26.42 Q 9.599 27.682 8.791 27.772 C 7.966 27.745 7.166 27.477 6.491 27.001 L 6.483 30.079 C 7.362 30.556 8.14 31.198 8.776 31.969 C 9.309 32.654 9.591 33.501 9.576 34.369 L 9.563 38.74 C 9.539 39.635 9.707 40.524 10.057 41.348 C 10.433 42.155 10.97 42.878 11.634 43.471 C 12.551 44.281 13.554 44.987 14.625 45.577 L 14.632 42.663 C 13.969 42.303 13.399 41.794 12.965 41.176 C 12.665 40.646 12.515 40.045 12.532 39.436 L 12.543 35.249 L 12.543 35.085 C 12.543 33.414 11.63 31.897 9.775 30.507 L 9.775 30.343 C 11.607 31.092 12.528 30.577 12.56 28.807 L 12.572 24.62 C 12.572 23.944 12.727 23.539 13.024 23.391 C 13.321 23.243 13.874 23.399 14.685 23.838 L 14.694 20.924 C 13.77 20.342 12.769 19.892 11.72 19.587 C 11.176 19.377 10.56 19.484 10.119 19.866 Z " fill="rgb(255,255,255)"/><path d=" M 27.401 38.513 C 26.889 37.868 26.614 37.066 26.622 36.243 L 26.622 36.131 L 26.634 31.71 C 26.675 30.392 26.276 29.099 25.5 28.033 C 24.405 26.734 23.065 25.664 21.556 24.883 L 21.549 27.795 C 22.21 28.154 22.781 28.659 23.217 29.272 C 23.521 29.801 23.671 30.404 23.65 31.013 L 23.638 35.198 C 23.746 37.142 24.786 38.914 26.432 39.955 L 26.432 40.121 C 25.794 39.775 25.043 39.7 24.349 39.914 C 23.866 40.15 23.621 40.677 23.619 41.514 L 23.619 41.638 L 23.608 45.823 C 23.608 46.5 23.461 46.923 23.166 47.067 C 22.871 47.211 22.306 47.055 21.495 46.617 L 21.487 49.531 C 23.352 50.608 24.665 51.068 25.435 50.931 C 26.205 50.794 26.583 50.001 26.588 48.566 L 26.6 44.195 C 26.6 43.282 26.873 42.795 27.391 42.71 C 28.217 42.722 29.02 42.987 29.691 43.469 L 29.699 40.391 C 28.82 39.918 28.04 39.28 27.401 38.513 Z " fill="rgb(255,255,255)"/></g></g></svg>