<?xml version="1.0" encoding="UTF-8" standalone="no"?><!-- Generator: Gravit.io --><svg xmlns="http://www.w3.org/2000/svg" xmlns:xlink="http://www.w3.org/1999/xlink" style="isolation:isolate" viewBox="0 0 38.656 57.811" width="38.656pt" height="57.811pt"><defs><clipPath id="_clipPath_SElm3h0mGNQqXBDEhf32Hi3GiITKZJ1F"><rect width="38.656" height="57.811"/></clipPath></defs><g clip-path="url(#_clipPath_SElm3h0mGNQqXBDEhf32Hi3GiITKZJ1F)"><path d=" M 36.368 15.804 L 9.559 0.333 C 8.718 -0.147 7.676 -0.106 6.876 0.44 L 6.876 0.44 L 0.99 3.84 L 3.726 7.55 L 4.746 8.719 L 4.746 35.274 C 4.746 36.855 5.589 38.316 6.957 39.108 L 27.021 50.708 L 27.227 51.822 L 31.322 57.559 L 37.622 53.859 L 37.654 53.841 L 37.697 53.818 L 37.697 53.818 C 38.296 53.45 38.66 52.795 38.656 52.092 L 38.656 19.762 C 38.657 18.128 37.784 16.619 36.368 15.804 Z " fill="rgb(244,118,122)"/><path d=" M 30.102 19.486 L 2.977 3.836 C 2.363 3.482 1.606 3.483 0.992 3.837 C 0.379 4.192 0 4.847 0 5.556 L 0 38.025 C 0.001 39.606 0.844 41.066 2.213 41.857 L 29.333 57.537 C 29.963 57.901 30.739 57.902 31.369 57.538 C 31.999 57.175 32.387 56.503 32.387 55.776 L 32.387 23.443 C 32.387 21.811 31.516 20.302 30.102 19.486 L 30.102 19.486 Z " fill="rgb(237,85,97)"/><g><path d=" M 31.361 57.541 L 31.321 57.564 L 31.321 57.559 C 31.335 57.554 31.348 57.548 31.361 57.541 L 31.361 57.541 Z " fill="rgb(187,206,225)"/><path d=" M 32.386 55.776 L 32.386 23.444 C 32.376 22.91 32.271 22.382 32.077 21.885 L 38.368 18.262 C 38.548 18.742 38.644 19.249 38.654 19.762 L 38.654 52.092 C 38.658 52.796 38.294 53.45 37.694 53.817 L 37.694 53.822 L 37.652 53.845 L 37.62 53.863 L 31.377 57.533 C 32.005 57.171 32.39 56.501 32.386 55.776 L 32.386 55.776 Z " fill="rgb(216,57,90)"/></g><g><path d=" M 6.447 19.378 L 3.147 17.478 L 3.113 29.344 L 5.302 30.608 L 5.314 26.391 L 6.254 26.933 Q 8.173 28.042 9.223 27.633 C 9.917 27.352 10.267 26.581 10.27 25.301 C 10.287 24.116 9.95 22.954 9.302 21.962 C 8.567 20.888 7.588 20.003 6.447 19.378 L 6.447 19.378 Z  M 7.556 25.154 C 7.016 25.223 6.471 25.074 6.042 24.739 L 5.323 24.324 L 5.333 20.801 L 6.333 21.376 C 6.86 21.66 7.311 22.066 7.649 22.56 C 7.934 23.026 8.079 23.565 8.066 24.111 C 8.063 24.697 7.892 25.04 7.556 25.153 L 7.556 25.154 Z " fill="rgb(255,255,255)"/><path d=" M 17.922 30.661 L 13.832 28.3 L 13.845 23.649 L 11.656 22.385 L 11.622 34.252 L 13.811 35.516 L 13.826 30.394 L 17.916 32.755 L 17.902 37.877 L 20.086 39.138 L 20.12 27.271 L 17.936 26.01 L 17.922 30.661 Z " fill="rgb(255,255,255)"/><path d=" M 28.302 32.925 C 27.565 31.852 26.585 30.968 25.443 30.344 L 22.143 28.444 L 22.109 40.31 L 24.298 41.575 L 24.31 37.358 L 25.248 37.9 Q 27.17 39.011 28.214 38.6 C 28.914 38.321 29.263 37.55 29.266 36.27 C 29.285 35.084 28.949 33.919 28.302 32.925 L 28.302 32.925 Z  M 26.552 36.125 C 26.012 36.193 25.467 36.044 25.038 35.71 L 24.319 35.295 L 24.329 31.771 L 25.329 32.348 C 25.856 32.631 26.308 33.037 26.645 33.531 C 26.929 33.998 27.073 34.537 27.061 35.083 C 27.059 35.663 26.889 36.012 26.552 36.121 L 26.552 36.125 Z " fill="rgb(255,255,255)"/></g></g></svg>