<?xml version="1.0" encoding="UTF-8" standalone="no"?><!-- Generator: Gravit.io --><svg xmlns="http://www.w3.org/2000/svg" xmlns:xlink="http://www.w3.org/1999/xlink" style="isolation:isolate" viewBox="0 0 29.031 43.413" width="29.031pt" height="43.413pt"><defs><clipPath id="_clipPath_1oGtG6enhWsjsqqAeCQNTjBeus3R7hkE"><rect width="29.031" height="43.413"/></clipPath></defs><g clip-path="url(#_clipPath_1oGtG6enhWsjsqqAeCQNTjBeus3R7hkE)"><path d=" M 27.312 11.868 L 7.18 0.251 C 6.548 -0.111 5.765 -0.08 5.164 0.331 L 5.164 0.331 L 0.743 2.884 L 2.799 5.671 L 3.563 6.549 L 3.563 26.496 C 3.564 27.684 4.198 28.781 5.226 29.376 L 20.294 38.087 L 20.45 38.925 L 23.525 43.234 L 28.253 40.454 L 28.278 40.439 L 28.31 40.421 L 28.31 40.421 C 28.761 40.143 29.034 39.651 29.031 39.121 L 29.031 14.841 C 29.031 13.614 28.376 12.48 27.312 11.868 L 27.312 11.868 Z " fill="rgb(255,168,225)"/><path d=" M 22.607 14.634 L 2.235 2.88 C 1.774 2.614 1.206 2.614 0.745 2.88 C 0.284 3.146 0 3.639 0 4.171 L 0 28.556 C 0 29.744 0.633 30.841 1.661 31.436 L 22.03 43.208 C 22.503 43.481 23.086 43.481 23.559 43.207 C 24.032 42.934 24.323 42.429 24.323 41.883 L 24.323 17.608 C 24.324 16.381 23.67 15.247 22.607 14.634 Z " fill="rgb(255,122,210)"/><g><path d=" M 23.552 43.211 L 23.524 43.229 L 23.524 43.224 L 23.552 43.211 Z " fill="rgb(187,206,225)"/><path d=" M 24.323 41.889 L 24.323 17.606 C 24.315 17.206 24.237 16.81 24.091 16.437 L 28.816 13.715 C 28.95 14.076 29.023 14.456 29.03 14.841 L 29.03 39.122 C 29.033 39.652 28.759 40.145 28.307 40.422 L 28.307 40.422 L 28.277 40.44 L 28.252 40.455 L 23.564 43.21 C 24.037 42.939 24.327 42.434 24.323 41.889 Z " fill="rgb(222,100,198)"/></g><path d=" M 18.588 19.421 C 17.524 17.488 15.982 15.86 14.108 14.694 C 12.484 13.757 10.86 13.531 9.617 14.242 C 7.411 15.5 7.16 19.28 8.861 23.106 L 3.326 26.259 L 4.939 29.051 L 10.472 25.898 C 11.427 27.258 12.653 28.405 14.072 29.27 C 15.691 30.205 17.313 30.431 18.556 29.725 C 21.043 28.31 21.057 23.696 18.588 19.421 Z  M 16.947 26.933 C 16.006 27.356 14.912 27.245 14.075 26.642 C 12.877 25.897 11.891 24.857 11.211 23.621 C 9.632 20.886 9.64 17.935 11.229 17.034 C 12.17 16.611 13.264 16.722 14.101 17.325 C 15.299 18.07 16.286 19.11 16.966 20.346 C 18.544 23.076 18.536 26.028 16.947 26.933 Z " fill="rgb(255,255,255)"/></g></svg>