<svg xmlns="http://www.w3.org/2000/svg" xmlns:xlink="http://www.w3.org/1999/xlink" width="26" height="22" viewBox="0 0 26 22"><defs><style>.a{fill:none;}.b{clip-path:url(#a);}</style><clipPath id="a"><rect class="a" width="26" height="22" transform="translate(0.403 0)"/></clipPath></defs><g transform="translate(-0.403 0)"><g transform="translate(0 0)"><g class="b" transform="translate(0 0)"><path d="M452.321,167.6A1.67,1.67,0,0,0,451,167a2.6,2.6,0,0,0-.925.184L428.3,175.495c-1.155.441-1.311,1.1-1.3,1.458s.2,1.007,1.381,1.382l.021.006,4.516,1.292,2.442,6.984a2.108,2.108,0,0,0,1.951,1.543,2.309,2.309,0,0,0,1.561-.665l2.793-2.572,4.051,3.262h0l.038.031.011.008a2.339,2.339,0,0,0,1.422.534h0a2,2,0,0,0,1.9-1.769l3.567-17.614a2.1,2.1,0,0,0-.338-1.781Zm-17.892,11.792,8.712-4.451-5.425,5.764a.751.751,0,0,0-.183.336l-1.046,4.237Zm3.423,7c-.036.033-.072.063-.109.09l.97-3.931,1.765,1.422Zm13.331-17.308-3.567,17.614c-.034.169-.144.561-.426.561a.878.878,0,0,1-.493-.214l-4.591-3.7,0,0-2.732-2.2,7.845-8.336a.753.753,0,0,0-.891-1.187l-12.9,6.592-4.577-1.31,21.764-8.308a1.106,1.106,0,0,1,.387-.085c.046,0,.128.005.159.043a.719.719,0,0,1,.028.528Zm0,0" transform="translate(-426.514 -166.634)"/></g></g></g></svg>