<svg xmlns="http://www.w3.org/2000/svg" xmlns:xlink="http://www.w3.org/1999/xlink" width="25" height="26" viewBox="0 0 25 26"><defs><style>.a{fill:none;}.b{clip-path:url(#a);}</style><clipPath id="a"><rect class="a" width="25" height="26" transform="translate(0.5 0)"/></clipPath></defs><g transform="translate(-0.5)"><g transform="translate(0 0)"><g class="b"><path d="M1039.776,222.007c.681-5.729-.327-9.346-2.144-10.982h0c-2.933-2.794-12.84-3.207-16.35.125-1.576,1.63-2.131,4.023-2.192,6.985s-.133,8.513,5.039,10.019h0l0,2.3s-.035.932.56,1.119c.681.22.989-.212,3.106-2.741a19.376,19.376,0,0,0,6.568-.5c.715-.24,4.76-.775,5.413-6.325Zm-11.632,5.206s-2.24,2.794-2.937,3.519c-.228.236-.478.214-.474-.254,0-.307.017-3.817.017-3.817-4.385-1.257-4.126-5.983-4.079-8.455s.5-4.5,1.835-5.863c3.079-2.887,11.764-2.242,13.977-.162,2.705,2.4,1.742,9.174,1.748,9.4-.556,4.633-3.834,4.927-4.436,5.127a17.871,17.871,0,0,1-5.65.5Zm0,0" transform="translate(-1017.148 -206.935)"/></g></g><path d="M1188.206,277.754a.288.288,0,0,0,0,.575c2.839.022,5.178,2,5.2,5.631a.278.278,0,1,0,.556,0h0c-.03-3.912-2.584-6.18-5.759-6.2Zm0,0" transform="translate(-1175.969 -271.803)"/><path d="M1199.678,307.046a.278.278,0,1,0,.556.013,3.85,3.85,0,0,0-3.782-4.121.289.289,0,0,0-.039.575,3.282,3.282,0,0,1,3.265,3.532Zm0,0" transform="translate(-1183.707 -295.491)"/><path d="M1105.5,296.241a.879.879,0,0,0-1.146.164l-.413.535a.74.74,0,0,1-.6.236,5.518,5.518,0,0,1-3.631-3.756.8.8,0,0,1,.227-.624l.517-.428a.952.952,0,0,0,.159-1.185,12.361,12.361,0,0,0-1.416-2.046.765.765,0,0,0-1.029-.174h-.009c-.822.481-1.722,1.381-1.434,2.308.491.977,1.394,4.092,4.273,6.446a16.431,16.431,0,0,0,4.4,2.517l.009.013c.9.3,1.766-.637,2.231-1.484v-.006a.815.815,0,0,0-.164-1.052,11.22,11.22,0,0,0-1.973-1.466Zm0,0" transform="translate(-1090.129 -282.233)"/><path d="M1203.568,329.55c.913.053,1.357.531,1.4,1.511a.278.278,0,1,0,.556-.027,1.908,1.908,0,0,0-1.93-2.059.288.288,0,0,0-.031.575Zm0,0" transform="translate(-1190.431 -319.98)"/></g></svg>