<svg xmlns="http://www.w3.org/2000/svg" xmlns:xlink="http://www.w3.org/1999/xlink" width="31" height="19" viewBox="0 0 31 19"><defs><style>.a{fill:none;}.b{clip-path:url(#a);}</style><clipPath id="a"><rect class="a" width="31" height="19" transform="translate(-0.5 0)"/></clipPath></defs><g transform="translate(0.5 0)"><g transform="translate(0 0)"><g class="b"><path d="M1733.549,300.2c4.445,0,2.86-2.814,3.2-3.623-.005-.6-.01-1.186.01-1.539a6.822,6.822,0,0,1,2.319,1.75c2.119,2.138,2.66,3.412,4.372,3.412h3.151a2.079,2.079,0,0,0,1.778-.76,1.988,1.988,0,0,0,.228-1.841c-.7-2.207-4.8-6.018-5.057-6.421.038-.074.1-.173.132-.224h0c.809-1.069,3.9-5.7,4.352-7.547a.027.027,0,0,0,0-.01,1.845,1.845,0,0,0-.213-1.7,1.957,1.957,0,0,0-1.663-.7h-3.151a2.32,2.32,0,0,0-2.26,1.5c-.677,1.722-2.58,5.263-4.006,6.516-.044-1.776-.015-3.132.009-4.139.046-1.965.195-3.878-1.845-3.878h-4.952c-1.278,0-2.5,1.4-1.177,3.052,1.157,1.452.416,2.261.666,6.288a23.553,23.553,0,0,1-3.928-7.462,2.3,2.3,0,0,0-2.326-1.877h-3.151a1.8,1.8,0,0,0-2.041,1.863c0,2.619,5.8,17.34,15.549,17.34Zm-10.357-17.282c.278,0,.306,0,.512.585,1.253,3.691,4.065,9.152,6.118,9.152,1.543,0,1.543-1.581,1.543-2.176v-4.739a4.53,4.53,0,0,0-1.03-2.823l4.491,0c0,.022-.026,5.243.012,6.508,0,1.8,1.426,2.826,3.653.572a27.359,27.359,0,0,0,4.039-6.776c.1-.23.179-.308.481-.308h3.164a.08.08,0,0,0,0,.012c-.288,1.344-3.131,5.628-4.083,6.958-.015.02-.029.042-.043.064a1.913,1.913,0,0,0,.058,2.5h0c.075.09.268.3.55.591.876.9,3.879,3.994,4.145,5.224-.176.028-.368.008-3.345.014-.634,0-1.129-.947-3.02-2.855-1.7-1.654-2.8-2.33-3.809-2.33-1.951,0-1.809,1.584-1.791,3.5.007,2.076-.006,1.42.008,1.55a3.864,3.864,0,0,1-1.292.134c-8.123,0-13.413-12.894-13.617-15.358.07-.006,1.04,0,3.26,0Zm0,0" transform="translate(-1718.07 -281.019)"/></g></g></g></svg>