<?xml version="1.0" encoding="UTF-8" standalone="no"?><!-- Generator: Gravit.io --><svg xmlns="http://www.w3.org/2000/svg" xmlns:xlink="http://www.w3.org/1999/xlink" style="isolation:isolate" viewBox="0 0 332.278 327.037" width="332.278pt" height="327.037pt"><defs><clipPath id="_clipPath_gfVKWpKMr78yNoHDwxau8ib4CeA7N8sf"><rect width="332.278" height="327.037"/></clipPath></defs><g clip-path="url(#_clipPath_gfVKWpKMr78yNoHDwxau8ib4CeA7N8sf)"><g><g><path d=" M 307.964 259.469 L 284.474 245.833 L 284.474 254.622 L 307.966 268.222 L 307.964 259.469 Z " fill="rgb(187,206,225)"/><path d=" M 308.753 231.879 L 284.474 245.832 L 307.964 259.468 L 332.277 245.495 L 308.753 231.879 Z " fill="rgb(255,255,255)"/><path d=" M 332.282 245.496 L 307.968 259.47 L 307.968 268.221 L 332.282 254.155 L 332.282 245.496 Z " fill="rgb(167,188,206)"/></g><path d=" M 307.964 245.094 L 284.474 231.458 L 284.474 240.247 L 307.966 253.847 L 307.964 245.094 Z " fill="rgb(187,206,225)"/><path d=" M 308.753 217.505 L 284.474 231.458 L 307.964 245.094 L 332.277 231.12 L 308.753 217.505 Z " fill="rgb(255,255,255)"/><path d=" M 332.282 231.12 L 307.968 245.094 L 307.968 253.845 L 332.28 239.779 L 332.282 231.12 Z " fill="rgb(167,188,206)"/><g><path d=" M 299.559 230.077 Q 297.659 228.977 301.277 226.877 C 302.268 226.271 303.351 225.832 304.484 225.577 C 305.25 225.365 306.066 225.436 306.784 225.777 C 307.035 225.908 307.247 226.103 307.4 226.341 C 307.519 226.54 307.614 226.752 307.684 226.973 L 309.906 226.429 C 309.783 226.068 309.586 225.736 309.327 225.455 C 309.049 225.168 308.729 224.925 308.38 224.731 C 307.116 224.04 305.662 223.776 304.235 223.98 C 302.485 224.207 300.803 224.799 299.297 225.718 C 297.604 226.702 296.604 227.647 296.306 228.557 C 296.008 229.467 296.443 230.265 297.622 230.946 C 298.382 231.394 299.226 231.68 300.101 231.787 L 301.826 230.787 C 301.034 230.69 300.265 230.449 299.559 230.077 L 299.559 230.077 Z " fill="rgb(145,166,183)"/><path d=" M 310.114 232.762 C 310.319 232.231 310.307 231.641 310.079 231.119 C 309.922 230.763 309.861 230.372 309.902 229.985 C 309.997 229.67 310.222 229.41 310.521 229.272 C 310.855 229.072 311.232 228.954 311.621 228.929 C 311.984 228.903 312.346 228.986 312.662 229.166 C 312.917 229.304 313.14 229.496 313.314 229.728 C 313.454 229.924 313.576 230.132 313.679 230.35 L 315.879 229.82 C 315.533 229.08 314.955 228.474 314.232 228.094 C 313.381 227.605 312.413 227.36 311.432 227.385 C 310.422 227.396 309.433 227.672 308.563 228.185 C 308.168 228.395 307.815 228.673 307.519 229.008 C 307.31 229.258 307.167 229.555 307.102 229.874 C 307.062 230.249 307.11 230.628 307.243 230.981 C 307.395 231.362 307.446 231.775 307.393 232.181 C 307.311 232.511 307.086 232.787 306.779 232.934 C 306.439 233.134 306.053 233.244 305.658 233.252 C 305.253 233.26 304.854 233.153 304.507 232.944 C 303.852 232.566 303.355 231.965 303.107 231.251 L 301.187 232.367 C 301.616 233.081 302.241 233.657 302.987 234.028 C 303.869 234.553 304.88 234.824 305.907 234.811 C 306.959 234.784 307.986 234.484 308.886 233.939 C 309.403 233.677 309.83 233.267 310.114 232.762 Z " fill="rgb(145,166,183)"/><path d=" M 320.3 231.602 C 319.449 231.113 318.481 230.868 317.5 230.893 C 316.49 230.906 315.502 231.182 314.631 231.693 C 314.238 231.905 313.885 232.184 313.587 232.516 C 313.379 232.766 313.237 233.063 313.172 233.382 C 313.133 233.757 313.181 234.135 313.311 234.489 C 313.461 234.87 313.515 235.282 313.467 235.689 C 313.379 236.017 313.153 236.29 312.848 236.438 C 312.509 236.637 312.125 236.748 311.732 236.759 C 311.327 236.766 310.928 236.659 310.581 236.45 C 309.925 236.074 309.428 235.474 309.181 234.759 L 307.26 235.875 C 307.689 236.589 308.313 237.164 309.06 237.533 C 309.942 238.06 310.954 238.331 311.981 238.316 C 313.034 238.291 314.063 237.992 314.965 237.448 C 315.481 237.185 315.907 236.773 316.188 236.267 C 316.396 235.737 316.383 235.145 316.153 234.624 C 315.999 234.268 315.94 233.878 315.982 233.492 C 316.071 233.176 316.295 232.915 316.594 232.778 C 316.928 232.578 317.305 232.46 317.694 232.435 C 318.058 232.409 318.422 232.493 318.738 232.676 C 318.992 232.813 319.212 233.004 319.385 233.235 C 319.524 233.431 319.647 233.639 319.75 233.857 L 321.95 233.327 C 321.604 232.587 321.024 231.981 320.3 231.602 Z " fill="rgb(145,166,183)"/></g></g><g opacity="0.2"><path d=" M 152.646 3 L 132.199 -8.8 C 131.735 -9.064 131.166 -9.062 130.704 -8.795 C 130.242 -8.527 129.957 -8.034 129.956 -7.5 L 129.956 16.975 C 129.956 18.167 130.592 19.268 131.624 19.865 L 152.068 31.684 C 152.542 31.957 153.127 31.957 153.601 31.683 C 154.075 31.41 154.368 30.904 154.368 30.356 L 154.368 5.982 C 154.368 4.752 153.711 3.615 152.646 3 L 152.646 3 Z " fill="rgb(255,255,255)"/></g><g opacity="0.2"><path d=" M 300.335 44.92 L 284.979 36.06 C 284.631 35.859 284.203 35.859 283.855 36.06 C 283.507 36.261 283.293 36.632 283.293 37.033 L 283.293 55.414 C 283.294 56.309 283.771 57.136 284.546 57.585 L 299.9 66.462 C 300.257 66.668 300.697 66.668 301.054 66.462 C 301.411 66.256 301.631 65.874 301.63 65.462 L 301.63 47.164 C 301.632 46.238 301.138 45.382 300.335 44.92 L 300.335 44.92 Z " fill="rgb(255,255,255)"/></g><g opacity="0.2"><path d=" M 230.494 31.398 L 207.194 17.953 C 206.666 17.649 206.016 17.649 205.488 17.954 C 204.96 18.259 204.636 18.823 204.636 19.432 L 204.636 47.323 C 204.635 48.682 205.359 49.938 206.536 50.617 L 229.836 64.087 C 230.377 64.399 231.043 64.399 231.584 64.087 C 232.125 63.775 232.459 63.198 232.459 62.573 L 232.459 34.797 C 232.459 33.394 231.71 32.098 230.494 31.398 L 230.494 31.398 Z " fill="rgb(255,255,255)"/></g><g opacity="0.2"><path d=" M 324.186 107.091 L 300.886 93.646 C 300.358 93.342 299.708 93.342 299.181 93.647 C 298.653 93.951 298.328 94.514 298.328 95.123 L 298.328 123.016 C 298.328 124.374 299.052 125.63 300.228 126.31 L 323.528 139.779 C 324.069 140.092 324.736 140.092 325.277 139.78 C 325.818 139.467 326.152 138.89 326.152 138.265 L 326.152 110.491 C 326.152 109.088 325.402 107.791 324.186 107.091 L 324.186 107.091 Z " fill="rgb(255,255,255)"/></g><path d=" M 99.757 301.766 C 93.573 301.824 95.602 297.121 95.602 297.121 C 86.424 294.321 81.919 295.882 81.909 295.882 C 79.609 303.982 80.537 308.882 80.452 310.829 C 80.41 311.793 81.126 312.383 82.029 312.719 C 86.965 314.557 91.46 315.779 100.653 314.882 C 107.421 314.223 114.585 307.957 112.953 301.522 C 111.942 297.519 106.029 301.706 99.757 301.766 Z " fill="rgb(147,62,49)"/><path d=" M 97.109 243.611 C 95.292 241.256 92.188 239.242 87.036 240.604 L 31.727 251.273 L 33.806 265.479 C 39.481 272.251 48.652 274.979 57.106 272.411 C 65.792 269.99 74.044 266.221 81.561 261.242 L 79.694 300.442 C 79.694 300.442 88.372 303.13 96.094 298.468 C 97.394 297.687 98.601 259.893 98.994 250.188 C 99.271 247.832 98.592 245.463 97.109 243.611 L 97.109 243.611 Z " fill="rgb(28,117,188)"/><path d=" M 126.303 313.107 C 119.881 313.169 121.989 308.286 121.989 308.286 C 112.458 305.38 107.781 306.998 107.771 307 C 105.387 315.414 106.346 320.5 106.259 322.52 C 106.215 323.52 106.959 324.132 107.897 324.482 C 113.022 326.391 117.689 327.659 127.234 326.728 C 134.261 326.042 141.7 319.537 140.009 312.855 C 138.955 308.697 132.814 313.042 126.303 313.107 Z " fill="rgb(157,77,54)"/><g><path d=" M 63.455 297.515 L 15.985 270.072 L 15.985 276.749 L 63.459 304.124 L 63.455 297.515 Z " fill="rgb(187,206,225)"/><path d=" M 59.124 245.278 L 15.981 270.067 L 63.451 297.51 L 106.651 272.68 L 59.124 245.278 Z " fill="rgb(255,255,255)"/><path d=" M 106.656 272.688 L 63.456 297.519 L 63.456 304.128 L 106.656 279.128 L 106.656 272.688 Z " fill="rgb(167,188,206)"/></g><path d=" M 123.553 252.722 C 121.666 250.277 118.443 248.184 113.095 249.599 L 55.666 260.677 L 57.826 275.425 C 63.717 282.458 73.24 285.292 82.018 282.625 C 91.037 280.11 99.605 276.196 107.41 271.025 L 105.471 311.725 C 105.471 311.725 114.482 314.517 122.496 309.674 C 123.841 308.863 125.096 269.622 125.502 259.544 C 125.791 257.101 125.089 254.644 123.553 252.722 Z " fill="rgb(42,135,198)"/><g><path d=" M 20.94 169.659 L 118.988 112.735 C 123.141 110.325 128.267 110.318 132.426 112.718 L 286.891 202.076 C 288.718 203.131 289.845 205.079 289.848 207.189 C 289.851 209.299 288.729 211.25 286.905 212.31 L 191.031 267.963 C 186.094 270.829 180.001 270.836 175.057 267.983 L 20.952 178.835 C 19.313 177.89 18.302 176.143 18.299 174.25 C 18.297 172.358 19.303 170.608 20.94 169.659 Z " fill="rgb(232,235,245)"/><path d=" M 20.952 178.834 L 175.061 267.988 C 180.005 270.841 186.098 270.833 191.035 267.968 L 286.908 212.315 C 288.731 211.269 289.853 209.325 289.847 207.223 L 289.847 214.698 L 289.835 214.698 C 289.811 216.763 288.698 218.663 286.908 219.693 L 191.035 275.348 C 186.097 278.213 180.005 278.22 175.061 275.366 L 20.952 186.214 C 19.296 185.268 18.283 183.499 18.306 181.592 L 18.306 181.592 L 18.306 174.265 C 18.301 176.153 19.312 177.898 20.952 178.834 L 20.952 178.834 Z " fill="rgb(167,188,206)"/><path d=" M 20.952 178.834 L 175.061 267.988 C 177.29 269.264 179.795 269.981 182.361 270.079 L 182.361 277.459 C 179.794 277.363 177.289 276.645 175.061 275.368 L 20.952 186.216 C 19.296 185.27 18.283 183.501 18.306 181.594 L 18.306 181.594 L 18.306 174.267 C 18.302 176.154 19.313 177.899 20.952 178.834 L 20.952 178.834 Z " fill="rgb(187,206,225)"/></g><g><g><path d=" M 93.388 190.244 L 110.03 180.616 C 110.812 180.163 111.777 180.163 112.559 180.616 L 163.948 210.337 C 164.292 210.536 164.503 210.903 164.503 211.3 C 164.503 211.696 164.292 212.063 163.948 212.262 L 147.716 221.653 C 146.786 222.191 145.64 222.191 144.71 221.653 L 93.386 191.971 C 93.079 191.791 92.891 191.462 92.891 191.107 C 92.892 190.751 93.081 190.423 93.388 190.244 L 93.388 190.244 Z " fill="rgb(15,68,99)"/><path d=" M 93.395 191.97 L 144.719 221.652 C 145.649 222.19 146.795 222.19 147.725 221.652 L 163.957 212.261 C 164.3 212.065 164.512 211.699 164.511 211.304 L 164.511 213.295 L 164.511 213.295 C 164.507 213.683 164.297 214.041 163.961 214.235 L 147.729 223.624 C 146.8 224.164 145.652 224.164 144.723 223.624 L 93.399 193.942 C 93.086 193.765 92.895 193.431 92.899 193.072 L 92.899 193.072 L 92.899 191.108 C 92.897 191.464 93.087 191.793 93.395 191.97 L 93.395 191.97 Z " fill="rgb(11,59,86)"/><g><path d=" M 109.841 183.317 L 111.925 182.108 L 114.293 183.474 L 112.216 184.674 L 109.841 183.317 Z " fill="rgb(31,94,119)"/><path d=" M 112.79 185.017 L 114.874 183.808 L 117.242 185.174 L 115.165 186.379 L 112.79 185.017 Z " fill="rgb(31,94,119)"/><path d=" M 115.749 186.717 L 117.832 185.508 L 120.2 186.873 L 118.123 188.078 L 115.749 186.717 Z " fill="rgb(31,94,119)"/><path d=" M 118.703 188.413 L 120.787 187.204 L 123.154 188.57 L 121.077 189.775 L 118.703 188.413 Z " fill="rgb(31,94,119)"/><path d=" M 121.654 190.118 L 123.738 188.909 L 126.106 190.275 L 124.029 191.475 L 121.654 190.118 Z " fill="rgb(31,94,119)"/><path d=" M 124.61 191.819 L 126.694 190.61 L 129.061 191.975 L 126.984 193.18 L 124.61 191.819 Z " fill="rgb(31,94,119)"/><path d=" M 127.564 193.518 L 129.648 192.309 L 132.016 193.675 L 129.939 194.88 L 127.564 193.518 Z " fill="rgb(31,94,119)"/><path d=" M 130.518 195.218 L 132.602 194.009 L 134.97 195.374 L 132.893 196.579 L 130.518 195.218 Z " fill="rgb(31,94,119)"/><path d=" M 133.472 196.919 L 135.556 195.71 L 137.924 197.076 L 135.847 198.281 L 133.472 196.919 Z " fill="rgb(31,94,119)"/><path d=" M 136.426 198.616 L 138.51 197.407 L 140.878 198.773 L 138.801 199.973 L 136.426 198.616 Z " fill="rgb(31,94,119)"/><path d=" M 139.382 200.32 L 141.466 199.111 L 143.834 200.477 L 141.757 201.677 L 139.382 200.32 Z " fill="rgb(31,94,119)"/><path d=" M 142.334 202.02 L 144.418 200.811 L 146.786 202.177 L 144.709 203.382 L 142.334 202.02 Z " fill="rgb(31,94,119)"/><path d=" M 147.371 202.511 L 149.739 203.877 L 147.662 205.077 L 145.288 203.715 L 147.371 202.511 Z " fill="rgb(31,94,119)"/><path d=" M 109.518 186.241 L 107.143 184.879 L 109.227 183.67 L 111.595 185.036 L 109.518 186.241 Z " fill="rgb(31,94,119)"/><path d=" M 114.551 186.735 L 112.474 187.94 L 110.1 186.578 L 112.183 185.369 L 114.551 186.735 Z " fill="rgb(31,94,119)"/><path d=" M 117.504 188.436 L 115.427 189.636 L 113.053 188.274 L 115.136 187.065 L 117.504 188.436 Z " fill="rgb(31,94,119)"/><path d=" M 120.458 190.141 L 118.382 191.341 L 116.007 189.979 L 118.091 188.77 L 120.458 190.141 Z " fill="rgb(31,94,119)"/><path d=" M 123.412 191.837 L 121.335 193.042 L 118.961 191.68 L 121.045 190.472 L 123.412 191.837 Z " fill="rgb(31,94,119)"/><path d=" M 126.366 193.537 L 124.289 194.742 L 121.914 193.38 L 123.998 192.171 L 126.366 193.537 Z " fill="rgb(31,94,119)"/><path d=" M 129.32 195.237 L 127.243 196.437 L 124.868 195.075 L 126.952 193.866 L 129.32 195.237 Z " fill="rgb(31,94,119)"/><path d=" M 132.273 196.937 L 130.196 198.142 L 127.821 196.776 L 129.905 195.567 L 132.273 196.937 Z " fill="rgb(31,94,119)"/><path d=" M 135.226 198.637 L 133.149 199.837 L 130.774 198.475 L 132.858 197.266 L 135.226 198.637 Z " fill="rgb(31,94,119)"/><path d=" M 138.181 200.338 L 136.104 201.543 L 133.73 200.181 L 135.814 198.972 L 138.181 200.338 Z " fill="rgb(31,94,119)"/><path d=" M 141.135 202.038 L 139.058 203.243 L 136.684 201.881 L 138.768 200.672 L 141.135 202.038 Z " fill="rgb(31,94,119)"/><path d=" M 144.086 203.739 L 142.009 204.944 L 139.635 203.582 L 141.719 202.373 L 144.086 203.739 Z " fill="rgb(31,94,119)"/><path d=" M 144.674 204.073 L 147.042 205.439 L 144.965 206.644 L 142.591 205.282 L 144.674 204.073 Z " fill="rgb(31,94,119)"/><path d=" M 106.824 187.803 L 104.45 186.441 L 106.534 185.232 L 108.902 186.598 L 106.824 187.803 Z " fill="rgb(31,94,119)"/><path d=" M 111.855 188.302 L 109.778 189.507 L 107.404 188.145 L 109.488 186.936 L 111.855 188.302 Z " fill="rgb(31,94,119)"/><path d=" M 110.357 189.841 L 112.44 188.632 L 114.808 189.998 L 112.731 191.198 L 110.357 189.841 Z " fill="rgb(31,94,119)"/><path d=" M 117.762 191.698 L 115.685 192.903 L 113.311 191.541 L 115.394 190.332 L 117.762 191.698 Z " fill="rgb(31,94,119)"/><path d=" M 120.716 193.399 L 118.639 194.599 L 116.264 193.237 L 118.347 192.028 L 120.716 193.399 Z " fill="rgb(31,94,119)"/><path d=" M 123.674 195.099 L 121.597 196.299 L 119.222 194.937 L 121.306 193.728 L 123.674 195.099 Z " fill="rgb(31,94,119)"/><path d=" M 126.624 196.798 L 124.548 198.003 L 122.173 196.641 L 124.257 195.432 L 126.624 196.798 Z " fill="rgb(31,94,119)"/><path d=" M 129.577 198.499 L 127.5 199.704 L 125.126 198.342 L 127.21 197.133 L 129.577 198.499 Z " fill="rgb(31,94,119)"/><path d=" M 132.531 200.199 L 130.454 201.404 L 128.08 200.042 L 130.164 198.833 L 132.531 200.199 Z " fill="rgb(31,94,119)"/><path d=" M 135.484 201.9 L 133.407 203.1 L 131.032 201.738 L 133.116 200.53 L 135.484 201.9 Z " fill="rgb(31,94,119)"/><path d=" M 138.439 203.6 L 136.362 204.805 L 133.987 203.443 L 136.071 202.234 L 138.439 203.6 Z " fill="rgb(31,94,119)"/><path d=" M 136.941 205.14 L 139.025 203.931 L 141.393 205.297 L 139.316 206.502 L 136.941 205.14 Z " fill="rgb(31,94,119)"/><path d=" M 141.979 205.634 L 144.346 207 L 142.269 208.205 L 139.895 206.843 L 141.979 205.634 Z " fill="rgb(31,94,119)"/><path d=" M 104.127 189.364 L 101.753 188.002 L 103.837 186.793 L 106.205 188.159 L 104.127 189.364 Z " fill="rgb(31,94,119)"/><path d=" M 104.706 189.703 L 106.79 188.494 L 109.158 189.859 L 107.081 191.064 L 104.706 189.703 Z " fill="rgb(31,94,119)"/><path d=" M 107.66 191.402 L 109.744 190.193 L 112.112 191.559 L 110.035 192.764 L 107.66 191.402 Z " fill="rgb(31,94,119)"/><path d=" M 110.613 193.103 L 112.697 191.894 L 115.064 193.26 L 112.987 194.465 L 110.613 193.103 Z " fill="rgb(31,94,119)"/><path d=" M 113.568 194.803 L 115.652 193.594 L 118.02 194.96 L 115.943 196.165 L 113.568 194.803 Z " fill="rgb(31,94,119)"/><path d=" M 116.522 196.503 L 118.606 195.294 L 120.974 196.66 L 118.897 197.86 L 116.522 196.503 Z " fill="rgb(31,94,119)"/><path d=" M 119.477 198.204 L 121.561 196.995 L 123.929 198.361 L 121.852 199.561 L 119.477 198.204 Z " fill="rgb(31,94,119)"/><path d=" M 122.43 199.904 L 124.514 198.695 L 126.882 200.061 L 124.805 201.266 L 122.43 199.904 Z " fill="rgb(31,94,119)"/><path d=" M 125.384 201.604 L 127.468 200.395 L 129.836 201.761 L 127.759 202.961 L 125.384 201.604 Z " fill="rgb(31,94,119)"/><path d=" M 128.341 203.3 L 130.425 202.091 L 132.793 203.457 L 130.716 204.657 L 128.341 203.3 Z " fill="rgb(31,94,119)"/><path d=" M 131.291 205.005 L 133.375 203.796 L 135.743 205.162 L 133.665 206.367 L 131.291 205.005 Z " fill="rgb(31,94,119)"/><path d=" M 134.245 206.706 L 136.329 205.497 L 138.697 206.863 L 136.62 208.063 L 134.245 206.706 Z " fill="rgb(31,94,119)"/><path d=" M 139.283 207.196 L 141.651 208.562 L 139.574 209.762 L 137.2 208.4 L 139.283 207.196 Z " fill="rgb(31,94,119)"/><path d=" M 101.431 190.926 L 99.056 189.564 L 101.14 188.355 L 103.508 189.721 L 101.431 190.926 Z " fill="rgb(31,94,119)"/><path d=" M 102.011 191.264 L 104.095 190.055 L 106.462 191.421 L 104.385 192.621 L 102.011 191.264 Z " fill="rgb(31,94,119)"/><path d=" M 104.965 192.965 L 107.049 191.756 L 109.416 193.121 L 107.341 194.327 L 104.965 192.965 Z " fill="rgb(31,94,119)"/><path d=" M 107.919 194.664 L 110.003 193.455 L 112.371 194.821 L 110.294 196.021 L 107.919 194.664 Z " fill="rgb(31,94,119)"/><path d=" M 110.873 196.365 L 112.956 195.156 L 115.324 196.522 L 113.247 197.722 L 110.873 196.365 Z " fill="rgb(31,94,119)"/><path d=" M 113.826 198.065 L 115.91 196.856 L 118.278 198.222 L 116.201 199.427 L 113.826 198.065 Z " fill="rgb(31,94,119)"/><path d=" M 116.78 199.766 L 118.864 198.557 L 121.232 199.923 L 119.155 201.128 L 116.78 199.766 Z " fill="rgb(31,94,119)"/><path d=" M 119.734 201.466 L 121.817 200.257 L 124.185 201.622 L 122.108 202.827 L 119.734 201.466 Z " fill="rgb(31,94,119)"/><path d=" M 122.688 203.166 L 124.772 201.957 L 127.14 203.323 L 125.063 204.528 L 122.688 203.166 Z " fill="rgb(31,94,119)"/><path d=" M 125.642 204.866 L 127.726 203.657 L 130.094 205.023 L 128.016 206.228 L 125.642 204.866 Z " fill="rgb(31,94,119)"/><path d=" M 128.595 206.567 L 130.679 205.358 L 133.047 206.724 L 130.97 207.929 L 128.595 206.567 Z " fill="rgb(31,94,119)"/><path d=" M 131.549 208.267 L 133.633 207.058 L 136.001 208.424 L 133.924 209.629 L 131.549 208.267 Z " fill="rgb(31,94,119)"/><path d=" M 136.586 208.758 L 138.954 210.124 L 136.877 211.329 L 134.502 209.967 L 136.586 208.758 Z " fill="rgb(31,94,119)"/><path d=" M 98.445 189.917 L 100.812 191.282 L 98.735 192.487 L 96.361 191.125 L 98.445 189.917 Z " fill="rgb(31,94,119)"/><path d=" M 103.769 192.986 L 101.689 194.186 L 99.314 192.824 L 101.398 191.615 L 103.769 192.986 Z " fill="rgb(31,94,119)"/><path d=" M 106.72 194.683 L 104.643 195.883 L 102.269 194.521 L 104.353 193.312 L 106.72 194.683 Z " fill="rgb(31,94,119)"/><path d=" M 109.674 196.383 L 107.597 197.588 L 105.223 196.226 L 107.306 195.017 L 109.674 196.383 Z " fill="rgb(31,94,119)"/><path d=" M 112.628 198.083 L 110.551 199.288 L 108.177 197.926 L 110.26 196.717 L 112.628 198.083 Z " fill="rgb(31,94,119)"/><path d=" M 115.582 199.784 L 113.505 200.989 L 111.13 199.627 L 113.214 198.418 L 115.582 199.784 Z " fill="rgb(31,94,119)"/><path d=" M 116.168 200.119 L 119.121 201.819 L 119.121 201.819 L 119.703 202.154 L 122.074 203.52 L 122.074 203.52 L 123.274 204.214 L 125.022 205.221 L 125.022 205.221 L 126.886 206.296 L 130.343 208.287 L 128.266 209.487 L 124.652 207.408 L 122.938 206.425 L 122.938 206.425 L 121.138 205.39 L 119.98 204.726 L 119.98 204.726 L 117.644 203.382 L 117.024 203.027 L 117.024 203.027 L 114.07 201.327 L 116.168 200.119 Z " fill="rgb(31,94,119)"/><path d=" M 133.304 209.986 L 131.227 211.191 L 128.848 209.824 L 130.932 208.615 L 133.304 209.986 Z " fill="rgb(31,94,119)"/><path d=" M 136.258 211.686 L 134.181 212.891 L 131.806 211.529 L 133.89 210.32 L 136.258 211.686 Z " fill="rgb(31,94,119)"/></g><g><path d=" M 151.194 207.119 L 153.278 205.91 L 155.646 207.276 L 153.569 208.476 L 151.194 207.119 Z " fill="rgb(31,94,119)"/><path d=" M 154.148 208.818 L 156.232 207.609 L 158.6 208.975 L 156.523 210.18 L 154.148 208.818 Z " fill="rgb(31,94,119)"/><path d=" M 157.101 210.519 L 159.185 209.31 L 161.553 210.676 L 159.476 211.882 L 157.101 210.519 Z " fill="rgb(31,94,119)"/><path d=" M 152.949 208.838 L 150.872 210.043 L 148.497 208.681 L 150.581 207.472 L 152.949 208.838 Z " fill="rgb(31,94,119)"/><path d=" M 155.903 210.537 L 153.826 211.742 L 151.451 210.38 L 153.535 209.171 L 155.903 210.537 Z " fill="rgb(31,94,119)"/><path d=" M 158.857 212.238 L 156.78 213.438 L 154.406 212.076 L 156.49 210.867 L 158.857 212.238 Z " fill="rgb(31,94,119)"/><path d=" M 150.254 210.4 L 148.177 211.6 L 145.802 210.238 L 147.886 209.029 L 150.254 210.4 Z " fill="rgb(31,94,119)"/><path d=" M 153.208 212.1 L 151.131 213.3 L 148.756 211.938 L 150.84 210.729 L 153.208 212.1 Z " fill="rgb(31,94,119)"/><path d=" M 156.161 213.8 L 154.084 215.005 L 151.709 213.643 L 153.793 212.434 L 156.161 213.8 Z " fill="rgb(31,94,119)"/><path d=" M 143.105 211.804 L 145.189 210.595 L 147.557 211.961 L 145.48 213.166 L 143.105 211.804 Z " fill="rgb(31,94,119)"/><path d=" M 146.059 213.503 L 148.143 212.294 L 150.511 213.66 L 148.434 214.865 L 146.059 213.503 Z " fill="rgb(31,94,119)"/><path d=" M 149.013 215.204 L 151.097 213.995 L 153.465 215.361 L 151.388 216.561 L 149.013 215.204 Z " fill="rgb(31,94,119)"/><path d=" M 140.41 213.366 L 142.494 212.157 L 144.862 213.523 L 142.785 214.723 L 140.41 213.366 Z " fill="rgb(31,94,119)"/><path d=" M 143.364 215.066 L 145.447 213.857 L 147.815 215.223 L 145.738 216.428 L 143.364 215.066 Z " fill="rgb(31,94,119)"/><path d=" M 146.317 216.766 L 148.401 215.557 L 150.769 216.923 L 148.692 218.128 L 146.317 216.766 Z " fill="rgb(31,94,119)"/><path d=" M 142.165 215.085 L 140.088 216.29 L 137.714 214.928 L 139.797 213.719 L 142.165 215.085 Z " fill="rgb(31,94,119)"/><path d=" M 145.119 216.785 L 143.043 217.985 L 140.668 216.623 L 142.752 215.414 L 145.119 216.785 Z " fill="rgb(31,94,119)"/></g></g><g><path d=" M 130.309 174.267 L 146.678 164.767 C 147.372 164.365 148.227 164.365 148.921 164.767 L 187.76 187.183 C 188.065 187.36 188.252 187.685 188.252 188.037 C 188.252 188.389 188.065 188.714 187.76 188.891 L 171.754 198.183 C 170.929 198.66 169.913 198.66 169.088 198.183 L 130.31 175.8 C 130.036 175.642 129.867 175.35 129.867 175.034 C 129.867 174.718 130.035 174.425 130.309 174.267 Z " fill="rgb(31,94,119)"/><path d=" M 130.311 175.804 L 169.089 198.187 C 169.914 198.664 170.93 198.664 171.755 198.187 L 187.761 188.895 C 188.066 188.721 188.253 188.396 188.251 188.045 L 188.251 190.056 L 188.251 190.056 C 188.247 190.4 188.062 190.717 187.763 190.889 L 171.757 200.181 C 170.932 200.658 169.916 200.658 169.091 200.181 L 130.313 177.798 C 130.037 177.64 129.868 177.345 129.871 177.027 L 129.871 177.027 L 129.871 175.042 C 129.869 175.357 130.038 175.648 130.311 175.804 Z " fill="rgb(7,48,75)"/><path d=" M 130.311 175.804 L 169.089 198.187 C 169.461 198.4 169.879 198.52 170.307 198.537 L 170.307 200.531 C 169.879 200.515 169.461 200.394 169.089 200.181 L 130.311 177.798 C 130.035 177.64 129.866 177.345 129.869 177.027 L 129.869 177.027 L 129.869 175.042 C 129.868 175.357 130.037 175.649 130.311 175.804 Z " fill="rgb(11,59,86)"/></g><g><path d=" M 172.773 175.769 L 142.586 158.301 L 142.586 173.256 L 172.773 190.712 L 172.773 175.769 Z " fill="rgb(15,68,99)"/><path d=" M 146.793 155.889 L 142.593 158.301 L 172.78 175.769 L 176.993 173.35 L 146.793 155.889 Z " fill="rgb(7,48,75)"/><path d=" M 176.989 173.35 L 172.776 175.769 L 172.776 190.712 L 176.989 188.265 L 176.989 173.35 Z " fill="rgb(7,48,75)"/></g><g><linearGradient id="_lgradient_1" x1="0" y1="0.5" x2="0.29100979430971186" y2="-0.45672007380206003" gradientTransform="matrix(91.756,0,0,120.739,112.081,82.188)" gradientUnits="userSpaceOnUse"><stop offset="17.501747503340997%" stop-opacity="1" style="stop-color:rgb(28,117,188)"/><stop offset="39.45904750334101%" stop-opacity="1" style="stop-color:rgb(31,119,188)"/><stop offset="60.07844750334102%" stop-opacity="1" style="stop-color:rgb(43,125,188)"/><stop offset="80.14694750334104%" stop-opacity="1" style="stop-color:rgb(62,136,188)"/><stop offset="96.20174750334102%" stop-opacity="1" style="stop-color:rgb(83,148,188)"/></linearGradient><path d=" M 112.081 82.188 L 203.837 135.406 L 203.837 202.927 L 112.083 149.496 L 112.081 82.188 Z " fill="url(#_lgradient_1)"/><path d=" M 203.837 135.406 L 206.888 133.553 L 206.888 201.074 L 203.835 202.928 L 203.837 135.406 Z " fill="rgb(7,48,75)"/><path d=" M 112.081 82.188 L 115.206 80.377 L 206.888 133.552 L 203.837 135.406 L 112.081 82.188 Z " fill="rgb(31,94,119)"/><path d=" M 112.082 82.188 L 112.082 149.496 L 203.835 202.926 L 203.835 135.405 L 112.082 82.188 Z  M 201.663 199.148 L 114.253 148.248 L 114.253 85.96 L 201.664 136.66 L 201.663 199.148 Z " fill="rgb(11,59,86)"/></g></g><path d=" M 78.102 165.551 C 77.15 175.194 70.038 182.387 62.213 181.616 C 54.388 180.845 48.813 172.401 49.77 162.756 C 50.727 153.111 57.834 145.918 65.659 146.691 C 73.484 147.464 79.057 155.906 78.102 165.551 Z " fill="rgb(254,212,189)"/><path d=" M 89.796 188.034 C 89.796 188.034 93.196 188.852 94.376 188.971 C 94.376 188.971 100.023 190.018 101.85 189.463 C 101.85 189.463 100.244 187.697 99.4 187.069 C 99.4 187.069 98.594 184.869 100.437 184.307 C 100.437 184.307 106.45 184.013 108.655 183.7 C 108.655 183.7 106.464 176.706 102.871 176.087 C 99.533 175.416 96.066 175.883 93.025 177.415 C 89.961 178.927 88.288 181.478 86.861 181.973 L 89.796 188.034 Z " fill="rgb(244,197,162)"/><path d=" M 90.185 178.924 L 66.924 184.757 L 65.757 199.534 L 93.215 190.125 C 93.785 184.891 90.185 178.924 90.185 178.924 Z " fill="rgb(237,85,97)"/><path d=" M 32.819 185.179 C 32.819 185.179 26.387 193.279 32.819 204.445 C 32.819 204.445 37.319 210.667 49.668 204.577 L 32.819 185.179 Z " fill="rgb(237,85,97)"/><path d=" M 51.885 175.707 C 51.885 175.707 61.91 175.023 69.778 180.523 C 70.217 181.615 70.967 182.553 71.934 183.223 C 73.508 184.272 81.308 187.4 81.308 187.4 C 81.308 187.4 77.869 233.186 81.816 255.478 C 81.816 255.478 64.865 268.714 38.392 255.478 C 38.392 255.478 34.521 199.263 32.819 185.178 C 32.819 185.176 37.227 179.721 51.885 175.707 Z " fill="rgb(222,73,90)"/><g><path d=" M 47.47 251.291 L 0 223.848 L 15.981 270.14 L 63.455 297.515 L 47.47 251.291 Z " fill="rgb(187,206,225)"/><path d=" M 5.242 220.806 L 0 223.848 L 47.47 251.291 L 52.77 248.212 L 5.242 220.806 Z " fill="rgb(255,255,255)"/><path d=" M 52.774 248.212 L 47.474 251.292 L 63.459 297.516 L 68.819 294.428 L 52.774 248.212 Z " fill="rgb(167,188,206)"/></g><path d=" M 121.066 208.308 C 121.066 208.308 123.657 205.699 124.649 204.954 C 124.649 204.954 129.127 200.923 131.082 200.488 C 131.082 200.488 129.697 203.44 129.293 204.501 C 129.293 204.501 131.293 203.655 133.122 202.969 C 135.154 202.291 137.362 202.367 139.343 203.183 C 143.838 204.783 143.618 213.77 139.943 212.707 C 133.899 210.959 131.181 215.755 127.575 216.765 C 125.896 217.199 124.189 217.512 122.465 217.7 L 121.066 208.308 Z " fill="rgb(244,197,162)"/><path d=" M 81.307 187.404 L 100.94 213.416 L 121.34 207.392 C 121.34 207.392 125.718 212.91 124.298 218.76 L 97.068 229.36 L 74.94 205.014 C 74.94 205.014 67.529 189.572 81.307 187.404 Z " fill="rgb(237,85,97)"/><path d=" M 70.366 138.453 C 70.366 138.453 71.878 142.076 64.652 143.053 C 57.446 144.033 48.499 147.63 46.152 155.253 C 44.652 160.129 46.391 165.353 48.839 169.612 C 49.663 171.092 50.623 172.492 51.709 173.792 C 55.364 174.471 59.141 173.822 62.358 171.96 C 64.82 170.143 66.79 167.742 68.09 164.973 C 68.09 164.973 72.39 166.764 73.734 163.182 C 74.721 160.549 77.829 159.895 79.52 158.457 C 79.523 158.457 89.28 142.514 70.366 138.453 Z " fill="rgb(157,77,54)"/><g><g><path d=" M 268.236 282.473 L 244.745 268.842 L 244.745 277.631 L 268.238 291.231 L 268.236 282.473 Z " fill="rgb(187,206,225)"/><path d=" M 269.025 254.885 L 244.745 268.838 L 268.236 282.474 L 292.549 268.501 L 269.025 254.885 Z " fill="rgb(255,255,255)"/><path d=" M 292.55 268.5 L 268.236 282.474 L 268.236 291.225 L 292.548 277.159 L 292.55 268.5 Z " fill="rgb(167,188,206)"/></g><path d=" M 268.236 268.097 L 244.745 254.46 L 244.745 263.249 L 268.238 276.849 L 268.236 268.097 Z " fill="rgb(187,206,225)"/><path d=" M 269.025 240.509 L 244.745 254.462 L 268.236 268.098 L 292.549 254.125 L 269.025 240.509 Z " fill="rgb(255,255,255)"/><path d=" M 292.55 254.124 L 268.236 268.097 L 268.236 276.848 L 292.548 262.782 L 292.55 254.124 Z " fill="rgb(167,188,206)"/><path d=" M 270.82 248.093 L 273.105 252.971 L 275.389 257.851 L 266.957 256.544 L 258.528 255.237 L 264.674 251.665 L 270.82 248.093 Z " fill="rgb(239,65,54)"/></g><g><g><path d=" M 123.494 96.212 L 123.494 98.003 L 131.016 102.341 L 131.016 100.55 L 123.494 96.212 Z " fill="rgb(245,208,18)"/><path d=" M 123.494 99.483 L 123.494 101.274 L 131.016 105.613 L 131.016 103.822 L 123.494 99.483 Z " fill="rgb(237,240,248)"/><path d=" M 123.494 102.754 L 123.494 104.548 L 131.016 108.887 L 131.016 107.096 L 123.494 102.754 Z " fill="rgb(237,240,248)"/><path d=" M 180.263 140.563 L 180.263 138.763 L 133.841 111.987 L 133.841 113.778 L 180.263 140.563 Z " fill="rgb(237,240,248)"/><path d=" M 123.494 106.024 L 123.494 107.815 L 131.016 112.154 L 131.016 110.363 L 123.494 106.024 Z " fill="rgb(237,240,248)"/><path d=" M 123.494 109.296 L 123.494 111.087 L 131.016 115.426 L 131.016 113.635 L 123.494 109.296 Z " fill="rgb(237,240,248)"/><path d=" M 180.263 143.829 L 180.263 142.038 L 133.841 115.261 L 133.841 117.052 L 180.263 143.829 Z " fill="rgb(80,232,94)"/><path d=" M 123.494 119.108 L 123.494 120.899 L 131.016 125.238 L 131.016 123.447 L 123.494 119.108 Z " fill="rgb(237,240,248)"/><path d=" M 123.494 122.38 L 123.494 124.171 L 131.016 128.51 L 131.016 126.719 L 123.494 122.38 Z " fill="rgb(245,208,18)"/><path d=" M 123.494 135.464 L 123.494 137.255 L 131.016 141.593 L 131.016 139.803 L 123.494 135.464 Z " fill="rgb(237,240,248)"/><path d=" M 123.494 138.734 L 123.494 140.525 L 131.016 144.864 L 131.016 143.074 L 123.494 138.734 Z " fill="rgb(237,240,248)"/><g><path d=" M 163.127 161.594 L 133.84 144.701 L 133.84 146.491 L 163.127 163.384 L 163.127 161.594 Z " fill="rgb(80,232,94)"/><path d=" M 164.67 162.484 L 164.67 164.27 L 180.262 173.263 L 180.262 171.472 L 164.67 162.484 Z " fill="rgb(237,240,248)"/></g><g><path d=" M 148.554 149.917 L 133.84 141.43 L 133.84 143.221 L 148.554 151.708 L 148.554 149.917 Z " fill="rgb(237,240,248)"/><path d=" M 150.097 150.808 L 150.097 152.599 L 180.262 169.999 L 180.262 168.208 L 150.097 150.808 Z " fill="rgb(237,240,248)"/></g><path d=" M 176.294 156.104 L 176.294 157.895 L 180.262 160.184 L 180.262 158.393 L 176.294 156.104 Z " fill="rgb(237,240,248)"/><path d=" M 154.699 140.377 L 133.84 128.345 L 133.84 130.14 L 154.699 142.172 L 154.699 140.377 Z " fill="rgb(237,85,97)"/><path d=" M 146.154 109.28 L 133.842 102.18 L 133.842 103.971 L 146.154 111.071 L 146.154 109.28 Z " fill="rgb(237,240,248)"/><g><path d=" M 166.334 120.92 L 147.696 110.17 L 147.696 111.961 L 166.334 122.711 L 166.334 120.92 Z " fill="rgb(237,240,248)"/></g><path d=" M 155.471 117.926 L 142.349 110.357 L 142.349 112.148 L 155.471 119.717 L 155.471 117.926 Z " fill="rgb(237,240,248)"/><g><path d=" M 169.239 125.867 L 157.015 118.816 L 157.015 120.607 L 169.239 127.658 L 169.239 125.867 Z " fill="rgb(237,85,97)"/><path d=" M 170.782 126.757 L 170.782 128.548 L 180.262 134.016 L 180.262 132.225 L 170.782 126.757 Z " fill="rgb(237,240,248)"/></g><path d=" M 136.266 110.119 L 136.266 111.909 L 146.153 117.609 L 146.153 115.819 L 136.266 110.119 Z " fill="rgb(237,85,97)"/><path d=" M 176.395 133.262 L 147.695 116.708 L 147.695 118.499 L 176.395 135.053 L 176.395 133.262 Z " fill="rgb(237,240,248)"/><path d=" M 159.964 133.603 L 141.209 122.785 L 141.209 124.576 L 159.964 135.394 L 159.964 133.603 Z " fill="rgb(237,240,248)"/><path d=" M 176.394 143.079 L 161.507 134.492 L 161.507 136.282 L 176.394 144.869 L 176.394 143.079 Z " fill="rgb(237,240,248)"/><g><path d=" M 174.751 151.943 L 156.243 141.268 L 156.243 143.059 L 174.751 153.734 L 174.751 151.943 Z " fill="rgb(237,240,248)"/></g><path d=" M 164.67 149.4 L 164.67 151.19 L 174.75 157.004 L 174.75 155.214 L 164.67 149.4 Z " fill="rgb(80,232,94)"/><path d=" M 137.47 133.711 L 133.84 131.617 L 133.84 133.408 L 137.47 135.502 L 137.47 133.711 Z " fill="rgb(237,240,248)"/><g><path d=" M 144.27 137.633 L 144.27 139.424 L 163.127 150.301 L 163.127 148.51 L 144.27 137.633 Z " fill="rgb(237,240,248)"/><path d=" M 142.727 136.742 L 139.014 134.601 L 139.014 136.392 L 142.727 138.533 L 142.727 136.742 Z " fill="rgb(237,240,248)"/></g><path d=" M 159.635 149.771 L 139.011 137.871 L 139.011 139.661 L 159.635 151.561 L 159.635 149.771 Z " fill="rgb(237,240,248)"/></g><g><path d=" M 183.527 130.859 L 183.527 131.352 L 185.6 132.552 L 185.6 132.051 L 183.527 130.859 Z " fill="rgb(237,240,248)"/><path d=" M 183.527 131.76 L 183.527 132.253 L 185.6 133.453 L 185.6 132.96 L 183.527 131.76 Z " fill="rgb(237,240,248)"/><path d=" M 183.527 132.662 L 183.527 133.155 L 185.6 134.355 L 185.6 133.862 L 183.527 132.662 Z " fill="rgb(237,240,248)"/><path d=" M 199.169 143.078 L 199.169 142.585 L 186.378 135.207 L 186.378 135.7 L 199.169 143.078 Z " fill="rgb(237,240,248)"/><path d=" M 183.527 133.563 L 183.527 134.056 L 185.6 135.256 L 185.6 134.763 L 183.527 133.563 Z " fill="rgb(237,240,248)"/><path d=" M 183.527 134.465 L 183.527 134.958 L 185.6 136.158 L 185.6 135.665 L 183.527 134.465 Z " fill="rgb(237,240,248)"/><path d=" M 199.169 143.98 L 199.169 143.487 L 186.378 136.109 L 186.378 136.602 L 199.169 143.98 Z " fill="rgb(237,240,248)"/><path d=" M 183.527 137.168 L 183.527 137.661 L 185.6 138.861 L 185.6 138.368 L 183.527 137.168 Z " fill="rgb(237,240,248)"/><path d=" M 183.527 138.069 L 183.527 138.562 L 185.6 139.762 L 185.6 139.269 L 183.527 138.069 Z " fill="rgb(237,240,248)"/><path d=" M 183.527 141.674 L 183.527 142.167 L 185.6 143.367 L 185.6 142.874 L 183.527 141.674 Z " fill="rgb(237,240,248)"/><path d=" M 183.527 142.576 L 183.527 143.069 L 185.6 144.269 L 185.6 143.775 L 183.527 142.576 Z " fill="rgb(237,240,248)"/><g><path d=" M 194.447 148.873 L 186.377 144.218 L 186.377 144.711 L 194.447 149.366 L 194.447 148.873 Z " fill="rgb(237,240,248)"/><path d=" M 194.872 149.119 L 194.872 149.612 L 199.172 152.09 L 199.172 151.594 L 194.872 149.119 Z " fill="rgb(237,240,248)"/></g><g><path d=" M 190.432 145.661 L 186.378 143.323 L 186.378 143.816 L 190.432 146.154 L 190.432 145.661 Z " fill="rgb(237,240,248)"/><path d=" M 190.856 145.9 L 190.856 146.393 L 199.168 151.187 L 199.168 150.7 L 190.856 145.9 Z " fill="rgb(237,240,248)"/></g><path d=" M 198.074 147.362 L 198.074 147.855 L 199.168 148.486 L 199.168 147.988 L 198.074 147.362 Z " fill="rgb(237,240,248)"/><path d=" M 192.125 143.029 L 186.377 139.714 L 186.377 140.207 L 192.125 143.522 L 192.125 143.029 Z " fill="rgb(237,240,248)"/><path d=" M 189.77 134.46 L 186.378 132.503 L 186.378 132.996 L 189.77 134.953 L 189.77 134.46 Z " fill="rgb(237,240,248)"/><g><path d=" M 195.33 137.667 L 190.195 134.705 L 190.195 135.198 L 195.33 138.16 L 195.33 137.667 Z " fill="rgb(237,240,248)"/></g><path d=" M 192.337 136.842 L 188.722 134.757 L 188.722 135.25 L 192.337 137.336 L 192.337 136.842 Z " fill="rgb(237,240,248)"/><g><path d=" M 196.13 139.03 L 192.761 137.087 L 192.761 137.58 L 196.13 139.523 L 196.13 139.03 Z " fill="rgb(237,240,248)"/><path d=" M 196.556 139.275 L 196.556 139.768 L 199.168 141.274 L 199.168 140.781 L 196.556 139.275 Z " fill="rgb(237,240,248)"/></g><path d=" M 187.045 134.692 L 187.045 135.185 L 189.769 136.756 L 189.769 136.263 L 187.045 134.692 Z " fill="rgb(237,240,248)"/><path d=" M 198.102 141.068 L 190.195 136.507 L 190.195 137 L 198.102 141.561 L 198.102 141.068 Z " fill="rgb(237,240,248)"/><path d=" M 193.575 141.161 L 188.407 138.18 L 188.407 138.673 L 193.575 141.654 L 193.575 141.161 Z " fill="rgb(237,240,248)"/><path d=" M 198.102 143.773 L 194.002 141.407 L 194.002 141.9 L 198.102 144.266 L 198.102 143.773 Z " fill="rgb(237,240,248)"/><g><path d=" M 197.649 146.216 L 192.549 143.275 L 192.549 143.768 L 197.649 146.71 L 197.649 146.216 Z " fill="rgb(237,240,248)"/></g><path d=" M 194.872 145.515 L 194.872 146.008 L 197.65 147.608 L 197.65 147.115 L 194.872 145.515 Z " fill="rgb(237,240,248)"/><path d=" M 187.378 141.191 L 186.378 140.614 L 186.378 141.107 L 187.378 141.684 L 187.378 141.191 Z " fill="rgb(237,240,248)"/><g><path d=" M 189.251 142.272 L 189.251 142.765 L 194.451 145.765 L 194.451 145.272 L 189.251 142.272 Z " fill="rgb(237,240,248)"/><path d=" M 188.827 142.027 L 187.804 141.437 L 187.804 141.93 L 188.827 142.52 L 188.827 142.027 Z " fill="rgb(237,240,248)"/></g><path d=" M 193.486 145.616 L 187.803 142.338 L 187.803 142.831 L 193.486 146.109 L 193.486 145.616 Z " fill="rgb(237,240,248)"/></g><g><path d=" M 183.527 146.109 L 183.527 146.603 L 185.6 147.803 L 185.6 147.31 L 183.527 146.109 Z " fill="rgb(237,240,248)"/><path d=" M 183.527 147.01 L 183.527 147.503 L 185.6 148.703 L 185.6 148.21 L 183.527 147.01 Z " fill="rgb(237,240,248)"/><path d=" M 183.527 147.909 L 183.527 148.402 L 185.6 149.602 L 185.6 149.109 L 183.527 147.909 Z " fill="rgb(237,240,248)"/><path d=" M 199.169 158.332 L 199.169 157.832 L 186.378 150.454 L 186.378 150.948 L 199.169 158.332 Z " fill="rgb(237,240,248)"/><path d=" M 183.527 148.813 L 183.527 149.306 L 185.6 150.506 L 185.6 150.013 L 183.527 148.813 Z " fill="rgb(237,240,248)"/><path d=" M 183.527 149.715 L 183.527 150.208 L 185.6 151.408 L 185.6 150.914 L 183.527 149.715 Z " fill="rgb(237,240,248)"/><path d=" M 199.169 159.23 L 199.169 158.737 L 186.378 151.359 L 186.378 151.852 L 199.169 159.23 Z " fill="rgb(237,240,248)"/><path d=" M 183.527 152.421 L 183.527 152.914 L 185.6 154.114 L 185.6 153.621 L 183.527 152.421 Z " fill="rgb(237,240,248)"/><path d=" M 183.527 153.319 L 183.527 153.812 L 185.6 155.012 L 185.6 154.519 L 183.527 153.319 Z " fill="rgb(237,240,248)"/><path d=" M 183.527 156.924 L 183.527 157.417 L 185.6 158.617 L 185.6 158.124 L 183.527 156.924 Z " fill="rgb(237,240,248)"/><path d=" M 183.527 157.826 L 183.527 158.319 L 185.6 159.519 L 185.6 159.026 L 183.527 157.826 Z " fill="rgb(237,240,248)"/><g><path d=" M 194.447 164.124 L 186.377 159.469 L 186.377 159.963 L 194.447 164.617 L 194.447 164.124 Z " fill="rgb(237,240,248)"/><path d=" M 194.872 164.37 L 194.872 164.863 L 199.172 167.341 L 199.172 166.848 L 194.872 164.37 Z " fill="rgb(237,240,248)"/></g><g><path d=" M 190.432 160.907 L 186.378 158.568 L 186.378 159.061 L 190.432 161.399 L 190.432 160.907 Z " fill="rgb(237,240,248)"/><path d=" M 190.856 161.152 L 190.856 161.645 L 199.168 166.439 L 199.168 165.946 L 190.856 161.152 Z " fill="rgb(237,240,248)"/></g><path d=" M 198.074 162.612 L 198.074 163.105 L 199.168 163.736 L 199.168 163.243 L 198.074 162.612 Z " fill="rgb(237,240,248)"/><path d=" M 192.125 158.279 L 186.377 154.964 L 186.377 155.457 L 192.125 158.772 L 192.125 158.279 Z " fill="rgb(237,240,248)"/><path d=" M 189.77 149.71 L 186.378 147.753 L 186.378 148.246 L 189.77 150.203 L 189.77 149.71 Z " fill="rgb(237,240,248)"/><g><path d=" M 195.33 152.917 L 190.195 149.955 L 190.195 150.448 L 195.33 153.41 L 195.33 152.917 Z " fill="rgb(237,240,248)"/></g><path d=" M 192.337 152.092 L 188.722 150.007 L 188.722 150.5 L 192.337 152.586 L 192.337 152.092 Z " fill="rgb(237,240,248)"/><g><path d=" M 196.13 154.281 L 192.761 152.338 L 192.761 152.831 L 196.13 154.774 L 196.13 154.281 Z " fill="rgb(237,240,248)"/><path d=" M 196.556 154.526 L 196.556 155.019 L 199.168 156.526 L 199.168 156.033 L 196.556 154.526 Z " fill="rgb(237,240,248)"/></g><path d=" M 187.045 149.941 L 187.045 150.435 L 189.769 152.006 L 189.769 151.513 L 187.045 149.941 Z " fill="rgb(237,240,248)"/><path d=" M 198.102 156.319 L 190.195 151.758 L 190.195 152.251 L 198.102 156.812 L 198.102 156.319 Z " fill="rgb(237,240,248)"/><path d=" M 193.575 156.411 L 188.407 153.43 L 188.407 153.923 L 193.575 156.904 L 193.575 156.411 Z " fill="rgb(237,240,248)"/><path d=" M 198.102 159.026 L 194.002 156.66 L 194.002 157.153 L 198.102 159.519 L 198.102 159.026 Z " fill="rgb(237,240,248)"/><g><path d=" M 197.649 161.466 L 192.549 158.524 L 192.549 159.017 L 197.649 161.959 L 197.649 161.466 Z " fill="rgb(237,240,248)"/></g><path d=" M 194.872 160.765 L 194.872 161.258 L 197.65 162.858 L 197.65 162.365 L 194.872 160.765 Z " fill="rgb(237,240,248)"/><path d=" M 187.378 156.441 L 186.378 155.864 L 186.378 156.357 L 187.378 156.934 L 187.378 156.441 Z " fill="rgb(237,240,248)"/><g><path d=" M 189.251 157.522 L 189.251 158.015 L 194.451 161.015 L 194.451 160.522 L 189.251 157.522 Z " fill="rgb(237,240,248)"/><path d=" M 188.827 157.277 L 187.804 156.687 L 187.804 157.18 L 188.827 157.77 L 188.827 157.277 Z " fill="rgb(237,240,248)"/></g><path d=" M 193.486 160.866 L 187.803 157.588 L 187.803 158.081 L 193.486 161.359 L 193.486 160.866 Z " fill="rgb(237,240,248)"/></g><g><path d=" M 183.527 161.36 L 183.527 161.853 L 185.6 163.053 L 185.6 162.56 L 183.527 161.36 Z " fill="rgb(237,240,248)"/><path d=" M 183.527 162.261 L 183.527 162.754 L 185.6 163.954 L 185.6 163.461 L 183.527 162.261 Z " fill="rgb(237,240,248)"/><path d=" M 183.527 163.163 L 183.527 163.656 L 185.6 164.856 L 185.6 164.363 L 183.527 163.163 Z " fill="rgb(237,240,248)"/><path d=" M 199.169 173.579 L 199.169 173.086 L 186.378 165.708 L 186.378 166.201 L 199.169 173.579 Z " fill="rgb(237,240,248)"/><path d=" M 183.527 164.064 L 183.527 164.557 L 185.6 165.757 L 185.6 165.264 L 183.527 164.064 Z " fill="rgb(237,240,248)"/><path d=" M 183.527 164.967 L 183.527 165.461 L 185.6 166.661 L 185.6 166.168 L 183.527 164.967 Z " fill="rgb(237,240,248)"/><path d=" M 199.169 174.481 L 199.169 173.988 L 186.378 166.61 L 186.378 167.103 L 199.169 174.481 Z " fill="rgb(237,240,248)"/><path d=" M 183.527 167.669 L 183.527 168.162 L 185.6 169.362 L 185.6 168.869 L 183.527 167.669 Z " fill="rgb(237,240,248)"/><path d=" M 183.527 168.57 L 183.527 169.063 L 185.6 170.263 L 185.6 169.77 L 183.527 168.57 Z " fill="rgb(237,240,248)"/><path d=" M 183.527 172.175 L 183.527 172.668 L 185.6 173.868 L 185.6 173.367 L 183.527 172.175 Z " fill="rgb(237,240,248)"/><path d=" M 183.527 173.077 L 183.527 173.57 L 185.6 174.77 L 185.6 174.277 L 183.527 173.077 Z " fill="rgb(237,240,248)"/><g><path d=" M 194.447 179.375 L 186.377 174.72 L 186.377 175.213 L 194.447 179.868 L 194.447 179.375 Z " fill="rgb(237,240,248)"/><path d=" M 194.872 179.621 L 194.872 180.114 L 199.172 182.592 L 199.172 182.099 L 194.872 179.621 Z " fill="rgb(237,240,248)"/></g><g><path d=" M 190.432 176.158 L 186.378 173.819 L 186.378 174.312 L 190.432 176.651 L 190.432 176.158 Z " fill="rgb(237,240,248)"/><path d=" M 190.856 176.403 L 190.856 176.896 L 199.168 181.69 L 199.168 181.196 L 190.856 176.403 Z " fill="rgb(237,240,248)"/></g><path d=" M 198.074 177.863 L 198.074 178.356 L 199.168 178.987 L 199.168 178.494 L 198.074 177.863 Z " fill="rgb(237,240,248)"/><path d=" M 192.125 173.529 L 186.377 170.214 L 186.377 170.707 L 192.125 174.022 L 192.125 173.529 Z " fill="rgb(237,240,248)"/><path d=" M 189.77 164.961 L 186.378 163.004 L 186.378 163.497 L 189.77 165.454 L 189.77 164.961 Z " fill="rgb(237,240,248)"/><g><path d=" M 195.33 168.164 L 190.195 165.202 L 190.195 165.695 L 195.33 168.657 L 195.33 168.164 Z " fill="rgb(237,240,248)"/></g><path d=" M 192.337 167.343 L 188.722 165.258 L 188.722 165.751 L 192.337 167.837 L 192.337 167.343 Z " fill="rgb(237,240,248)"/><g><path d=" M 196.13 169.531 L 192.761 167.588 L 192.761 168.081 L 196.13 170.024 L 196.13 169.531 Z " fill="rgb(237,240,248)"/><path d=" M 196.556 169.776 L 196.556 170.27 L 199.168 171.777 L 199.168 171.284 L 196.556 169.776 Z " fill="rgb(237,240,248)"/></g><path d=" M 187.045 165.192 L 187.045 165.685 L 189.769 167.256 L 189.769 166.759 L 187.045 165.192 Z " fill="rgb(237,240,248)"/><path d=" M 198.102 171.569 L 190.195 167.008 L 190.195 167.501 L 198.102 172.062 L 198.102 171.569 Z " fill="rgb(237,240,248)"/><path d=" M 193.575 171.662 L 188.407 168.681 L 188.407 169.174 L 193.575 172.155 L 193.575 171.662 Z " fill="rgb(237,240,248)"/><path d=" M 198.102 174.274 L 194.002 171.908 L 194.002 172.402 L 198.102 174.768 L 198.102 174.274 Z " fill="rgb(237,240,248)"/><g><path d=" M 197.649 176.717 L 192.549 173.775 L 192.549 174.268 L 197.649 177.209 L 197.649 176.717 Z " fill="rgb(237,240,248)"/></g><path d=" M 194.872 176.012 L 194.872 176.505 L 197.65 178.105 L 197.65 177.612 L 194.872 176.012 Z " fill="rgb(237,240,248)"/><path d=" M 187.378 171.693 L 186.378 171.116 L 186.378 171.609 L 187.378 172.186 L 187.378 171.693 Z " fill="rgb(237,240,248)"/><g><path d=" M 189.251 172.774 L 189.251 173.267 L 194.451 176.267 L 194.451 175.774 L 189.251 172.774 Z " fill="rgb(237,240,248)"/><path d=" M 188.827 172.528 L 187.804 171.938 L 187.804 172.431 L 188.827 173.021 L 188.827 172.528 Z " fill="rgb(237,240,248)"/></g><path d=" M 193.486 176.117 L 187.803 172.839 L 187.803 173.332 L 193.486 176.61 L 193.486 176.117 Z " fill="rgb(237,240,248)"/></g><g><path d=" M 183.527 176.61 L 183.527 177.103 L 185.6 178.303 L 185.6 177.81 L 183.527 176.61 Z " fill="rgb(237,240,248)"/><path d=" M 183.527 177.513 L 183.527 178.006 L 185.6 179.206 L 185.6 178.712 L 183.527 177.513 Z " fill="rgb(237,240,248)"/><path d=" M 183.527 178.412 L 183.527 178.905 L 185.6 180.105 L 185.6 179.612 L 183.527 178.412 Z " fill="rgb(237,240,248)"/><path d=" M 199.169 188.829 L 199.169 188.336 L 186.378 180.958 L 186.378 181.451 L 199.169 188.829 Z " fill="rgb(237,240,248)"/><path d=" M 183.527 179.314 L 183.527 179.807 L 185.6 181.007 L 185.6 180.514 L 183.527 179.314 Z " fill="rgb(237,240,248)"/><path d=" M 183.527 180.215 L 183.527 180.709 L 185.6 181.909 L 185.6 181.416 L 183.527 180.215 Z " fill="rgb(237,240,248)"/><path d=" M 199.169 189.73 L 199.169 189.237 L 186.378 181.859 L 186.378 182.352 L 199.169 189.73 Z " fill="rgb(237,240,248)"/><path d=" M 183.527 182.919 L 183.527 183.412 L 185.6 184.612 L 185.6 184.119 L 183.527 182.919 Z " fill="rgb(237,240,248)"/><path d=" M 183.527 183.82 L 183.527 184.313 L 185.6 185.513 L 185.6 185.02 L 183.527 183.82 Z " fill="rgb(237,240,248)"/><path d=" M 198.074 193.112 L 198.074 193.605 L 199.168 194.236 L 199.168 193.743 L 198.074 193.112 Z " fill="rgb(237,240,248)"/><path d=" M 192.125 188.779 L 186.377 185.464 L 186.377 185.957 L 192.125 189.272 L 192.125 188.779 Z " fill="rgb(237,240,248)"/><path d=" M 189.77 180.212 L 186.378 178.255 L 186.378 178.748 L 189.77 180.705 L 189.77 180.212 Z " fill="rgb(237,240,248)"/><g><path d=" M 195.33 183.418 L 190.195 180.456 L 190.195 180.949 L 195.33 183.911 L 195.33 183.418 Z " fill="rgb(237,240,248)"/></g><path d=" M 192.337 182.593 L 188.722 180.508 L 188.722 181.001 L 192.337 183.086 L 192.337 182.593 Z " fill="rgb(237,240,248)"/><g><path d=" M 196.13 184.781 L 192.761 182.838 L 192.761 183.331 L 196.13 185.274 L 196.13 184.781 Z " fill="rgb(237,240,248)"/><path d=" M 196.556 185.026 L 196.556 185.52 L 199.168 187.027 L 199.168 186.535 L 196.556 185.026 Z " fill="rgb(237,240,248)"/></g><path d=" M 187.045 180.442 L 187.045 180.935 L 189.769 182.506 L 189.769 182.013 L 187.045 180.442 Z " fill="rgb(237,240,248)"/><path d=" M 198.102 186.822 L 190.195 182.261 L 190.195 182.754 L 198.102 187.315 L 198.102 186.822 Z " fill="rgb(237,240,248)"/><path d=" M 193.575 186.912 L 188.407 183.931 L 188.407 184.424 L 193.575 187.405 L 193.575 186.912 Z " fill="rgb(237,240,248)"/><path d=" M 198.102 189.523 L 194.002 187.157 L 194.002 187.65 L 198.102 190.016 L 198.102 189.523 Z " fill="rgb(237,240,248)"/><g><path d=" M 197.649 191.967 L 192.549 189.026 L 192.549 189.519 L 197.649 192.46 L 197.649 191.967 Z " fill="rgb(237,240,248)"/></g><path d=" M 194.872 191.265 L 194.872 191.758 L 197.65 193.358 L 197.65 192.865 L 194.872 191.265 Z " fill="rgb(237,240,248)"/><path d=" M 187.378 186.942 L 186.378 186.365 L 186.378 186.858 L 187.378 187.435 L 187.378 186.942 Z " fill="rgb(237,240,248)"/><g><path d=" M 189.251 188.024 L 189.251 188.517 L 194.451 191.517 L 194.451 191.024 L 189.251 188.024 Z " fill="rgb(237,240,248)"/><path d=" M 188.827 187.778 L 187.804 187.188 L 187.804 187.681 L 188.827 188.271 L 188.827 187.778 Z " fill="rgb(237,240,248)"/></g><path d=" M 193.486 191.367 L 187.803 188.089 L 187.803 188.582 L 193.486 191.86 L 193.486 191.367 Z " fill="rgb(237,240,248)"/></g><path d=" M 118.679 93.43 L 116.2 92 C 116.144 91.968 116.075 91.968 116.019 92.001 C 115.963 92.033 115.928 92.092 115.927 92.157 L 115.927 95.124 C 115.926 95.268 116.002 95.402 116.127 95.474 L 118.606 96.907 C 118.664 96.94 118.734 96.94 118.792 96.907 C 118.85 96.874 118.885 96.812 118.885 96.746 L 118.885 93.793 C 118.886 93.644 118.807 93.506 118.679 93.43 L 118.679 93.43 Z " fill="rgb(80,232,94)"/><path d=" M 118.679 97.869 L 116.2 96.439 C 116.144 96.407 116.075 96.406 116.018 96.439 C 115.962 96.471 115.927 96.531 115.927 96.596 L 115.927 99.562 C 115.927 99.706 116.003 99.84 116.127 99.913 L 118.606 101.345 C 118.664 101.378 118.734 101.378 118.792 101.345 C 118.85 101.312 118.885 101.25 118.885 101.184 L 118.885 98.23 C 118.886 98.081 118.807 97.944 118.679 97.869 Z " fill="rgb(80,232,94)"/><path d=" M 118.679 102.307 L 116.2 100.877 C 116.144 100.845 116.075 100.844 116.018 100.877 C 115.962 100.909 115.927 100.969 115.927 101.034 L 115.927 104 C 115.925 104.145 116.002 104.279 116.127 104.351 L 118.606 105.783 C 118.664 105.816 118.734 105.816 118.792 105.783 C 118.85 105.75 118.885 105.688 118.885 105.622 L 118.885 102.668 C 118.885 102.52 118.807 102.382 118.679 102.307 L 118.679 102.307 Z " fill="rgb(80,232,94)"/><path d=" M 118.679 106.745 L 116.2 105.315 C 116.144 105.283 116.075 105.282 116.018 105.315 C 115.962 105.347 115.927 105.407 115.927 105.472 L 115.927 108.438 C 115.925 108.583 116.002 108.717 116.127 108.789 L 118.606 110.221 C 118.664 110.254 118.734 110.254 118.792 110.221 C 118.85 110.188 118.885 110.126 118.885 110.06 L 118.885 107.106 C 118.885 106.958 118.807 106.82 118.679 106.745 L 118.679 106.745 Z " fill="rgb(80,232,94)"/><path d=" M 118.679 111.183 L 116.2 109.753 C 116.144 109.721 116.075 109.72 116.018 109.753 C 115.962 109.785 115.927 109.845 115.927 109.91 L 115.927 112.877 C 115.926 113.021 116.002 113.155 116.127 113.227 L 118.606 114.661 C 118.664 114.694 118.735 114.693 118.792 114.66 C 118.849 114.627 118.885 114.565 118.885 114.499 L 118.885 111.545 C 118.885 111.396 118.807 111.259 118.679 111.183 L 118.679 111.183 Z " fill="rgb(80,232,94)"/><path d=" M 118.679 115.621 L 116.2 114.191 C 116.144 114.159 116.075 114.159 116.019 114.192 C 115.963 114.224 115.928 114.283 115.927 114.348 L 115.927 117.315 C 115.926 117.459 116.002 117.593 116.127 117.665 L 118.606 119.099 C 118.664 119.132 118.734 119.132 118.792 119.099 C 118.85 119.066 118.885 119.004 118.885 118.938 L 118.885 115.982 C 118.885 115.834 118.807 115.696 118.679 115.621 L 118.679 115.621 Z " fill="rgb(80,232,94)"/><path d=" M 118.679 120.058 L 116.2 118.628 C 116.144 118.596 116.075 118.596 116.019 118.629 C 115.963 118.661 115.928 118.72 115.927 118.785 L 115.927 121.752 C 115.926 121.896 116.002 122.03 116.127 122.102 L 118.606 123.536 C 118.664 123.569 118.734 123.569 118.792 123.536 C 118.85 123.503 118.885 123.441 118.885 123.375 L 118.885 120.422 C 118.886 120.273 118.807 120.134 118.679 120.058 Z " fill="rgb(80,232,94)"/><path d=" M 118.679 124.495 L 116.2 123.067 C 116.144 123.035 116.075 123.034 116.018 123.067 C 115.962 123.099 115.927 123.159 115.927 123.224 L 115.927 126.19 C 115.927 126.334 116.003 126.467 116.127 126.541 L 118.606 127.973 C 118.664 128.006 118.734 128.006 118.792 127.973 C 118.85 127.94 118.885 127.878 118.885 127.812 L 118.885 124.858 C 118.886 124.709 118.807 124.571 118.679 124.495 Z " fill="rgb(80,232,94)"/><path d=" M 118.679 128.935 L 116.2 127.505 C 116.144 127.473 116.075 127.472 116.018 127.505 C 115.962 127.537 115.927 127.597 115.927 127.662 L 115.927 130.628 C 115.927 130.772 116.003 130.906 116.127 130.979 L 118.606 132.411 C 118.664 132.444 118.734 132.444 118.792 132.411 C 118.85 132.378 118.885 132.316 118.885 132.25 L 118.885 129.292 C 118.884 129.145 118.806 129.009 118.679 128.935 Z " fill="rgb(80,232,94)"/><path d=" M 118.679 133.377 L 116.2 131.947 C 116.144 131.915 116.075 131.914 116.018 131.947 C 115.962 131.979 115.927 132.039 115.927 132.104 L 115.927 135.07 C 115.925 135.215 116.002 135.349 116.127 135.421 L 118.606 136.853 C 118.664 136.886 118.734 136.886 118.792 136.853 C 118.85 136.82 118.885 136.758 118.885 136.692 L 118.885 133.738 C 118.885 133.59 118.807 133.452 118.679 133.377 L 118.679 133.377 Z " fill="rgb(80,232,94)"/><path d=" M 118.679 137.811 L 116.2 136.381 C 116.144 136.349 116.075 136.348 116.018 136.381 C 115.962 136.413 115.927 136.473 115.927 136.538 L 115.927 139.505 C 115.926 139.649 116.002 139.783 116.127 139.855 L 118.606 141.288 C 118.664 141.321 118.735 141.32 118.792 141.287 C 118.849 141.254 118.885 141.192 118.885 141.126 L 118.885 138.172 C 118.885 138.024 118.807 137.886 118.679 137.811 L 118.679 137.811 Z " fill="rgb(80,232,94)"/><path d=" M 118.679 142.246 L 116.2 140.816 C 116.144 140.784 116.075 140.784 116.019 140.817 C 115.963 140.849 115.928 140.908 115.927 140.973 L 115.927 143.946 C 115.926 144.09 116.002 144.224 116.127 144.296 L 118.606 145.73 C 118.664 145.763 118.735 145.762 118.792 145.729 C 118.849 145.696 118.885 145.634 118.885 145.568 L 118.885 142.614 C 118.888 142.463 118.809 142.323 118.679 142.246 Z " fill="rgb(80,232,94)"/></g><path d=" M 168.265 226.91 C 168.265 226.91 164.026 225.01 159.04 228.318 C 159.04 228.318 150.695 236.24 152.722 237.941 C 152.722 237.941 158.69 241.464 161.248 240.547 C 163.806 239.63 176.45 232.192 168.265 226.91 Z " fill="rgb(15,68,99)"/><g><path d=" M 315.896 106.543 L 285.349 88.918 C 284.391 88.37 283.204 88.417 282.292 89.04 L 282.292 89.04 L 275.584 92.914 L 278.702 97.143 L 279.864 98.474 L 279.864 128.743 C 279.864 130.546 280.825 132.212 282.386 133.114 L 305.25 146.332 L 305.484 147.603 L 310.149 154.142 L 317.325 149.923 L 317.361 149.901 L 317.41 149.874 L 317.41 149.874 C 318.092 149.454 318.507 148.708 318.504 147.907 L 318.504 111.057 C 318.506 109.194 317.511 107.472 315.896 106.543 L 315.896 106.543 Z " fill="rgb(121,255,104)"/><path d=" M 308.755 110.746 L 277.845 92.91 C 277.145 92.506 276.283 92.507 275.583 92.911 C 274.884 93.315 274.453 94.062 274.453 94.87 L 274.453 131.87 C 274.453 133.671 275.414 135.336 276.974 136.237 L 307.881 154.107 C 308.599 154.522 309.483 154.522 310.201 154.107 C 310.918 153.693 311.36 152.927 311.36 152.098 L 311.36 115.253 C 311.36 113.393 310.367 111.674 308.755 110.746 L 308.755 110.746 Z " fill="rgb(80,232,94)"/><g><path d=" M 310.191 154.115 L 310.147 154.142 L 310.147 154.137 C 310.159 154.124 310.175 154.121 310.191 154.115 Z " fill="rgb(187,206,225)"/><path d=" M 311.359 152.099 L 311.359 115.254 C 311.347 114.646 311.226 114.045 311.004 113.479 L 318.175 109.349 C 318.379 109.896 318.488 110.473 318.499 111.057 L 318.499 147.9 C 318.502 148.703 318.085 149.448 317.399 149.865 L 317.399 149.87 L 317.352 149.897 L 317.315 149.919 L 310.199 154.102 C 310.918 153.692 311.361 152.927 311.359 152.099 L 311.359 152.099 Z " fill="rgb(60,199,67)"/></g><g><path d=" M 278.373 116.75 L 287.948 127.15 L 287.955 124.501 L 281.355 117.558 L 287.973 117.858 L 287.981 115.192 L 278.381 115.161 L 278.373 116.75 Z " fill="rgb(31,94,119)"/><path d=" M 288.934 129.975 L 291.606 131.518 L 296.924 118.328 L 294.245 116.781 L 288.934 129.975 Z " fill="rgb(31,94,119)"/><path d=" M 297.858 120.893 L 297.85 123.559 L 304.455 130.894 L 297.831 130.203 L 297.824 132.852 L 307.434 133.531 L 307.434 131.938 L 297.858 120.893 Z " fill="rgb(31,94,119)"/></g></g><g><path d=" M 258.213 83 L 238.081 71.383 C 237.449 71.021 236.666 71.052 236.065 71.463 L 236.065 71.463 L 231.644 74.016 L 233.7 76.803 L 234.464 77.681 L 234.464 97.628 C 234.465 98.816 235.099 99.913 236.127 100.508 L 251.195 109.219 L 251.351 110.057 L 254.426 114.366 L 259.154 111.586 L 259.179 111.571 L 259.211 111.553 L 259.211 111.553 C 259.662 111.275 259.935 110.783 259.932 110.253 L 259.932 85.973 C 259.932 84.746 259.277 83.612 258.213 83 L 258.213 83 Z " fill="rgb(255,168,225)"/><path d=" M 253.508 85.766 L 233.136 74.012 C 232.675 73.746 232.107 73.746 231.646 74.012 C 231.185 74.278 230.901 74.771 230.901 75.303 L 230.901 99.688 C 230.901 100.876 231.534 101.973 232.562 102.568 L 252.931 114.34 C 253.404 114.613 253.987 114.613 254.46 114.339 C 254.933 114.066 255.224 113.561 255.224 113.015 L 255.224 88.74 C 255.225 87.513 254.571 86.379 253.508 85.766 Z " fill="rgb(255,122,210)"/><g><path d=" M 254.453 114.343 L 254.425 114.361 L 254.425 114.356 L 254.453 114.343 Z " fill="rgb(187,206,225)"/><path d=" M 255.224 113.021 L 255.224 88.738 C 255.216 88.338 255.138 87.942 254.992 87.569 L 259.717 84.847 C 259.851 85.208 259.924 85.588 259.931 85.973 L 259.931 110.254 C 259.934 110.784 259.66 111.277 259.208 111.554 L 259.208 111.554 L 259.178 111.572 L 259.153 111.587 L 254.465 114.342 C 254.938 114.071 255.228 113.566 255.224 113.021 Z " fill="rgb(222,100,198)"/></g><path d=" M 249.489 90.553 C 248.425 88.62 246.883 86.992 245.009 85.826 C 243.385 84.889 241.761 84.663 240.518 85.374 C 238.312 86.632 238.061 90.412 239.762 94.238 L 234.227 97.391 L 235.84 100.183 L 241.373 97.03 C 242.328 98.39 243.554 99.537 244.973 100.402 C 246.592 101.337 248.214 101.563 249.457 100.857 C 251.944 99.442 251.958 94.828 249.489 90.553 Z  M 247.848 98.065 C 246.907 98.488 245.813 98.377 244.976 97.774 C 243.778 97.029 242.792 95.989 242.112 94.753 C 240.533 92.018 240.541 89.067 242.13 88.166 C 243.071 87.743 244.165 87.854 245.002 88.457 C 246.2 89.202 247.187 90.242 247.867 91.478 C 249.445 94.208 249.437 97.16 247.848 98.065 Z " fill="rgb(255,255,255)"/></g><g><path d=" M 210.329 48.348 L 179.78 30.719 C 178.821 30.171 177.634 30.218 176.722 30.841 L 176.722 30.841 L 170.015 34.715 L 173.133 38.944 L 174.296 40.276 L 174.296 70.542 C 174.297 72.344 175.257 74.009 176.817 74.911 L 199.683 88.13 L 199.917 89.401 L 204.582 95.94 L 211.758 91.721 L 211.795 91.699 L 211.844 91.672 L 211.844 91.667 C 212.526 91.248 212.94 90.503 212.936 89.702 L 212.936 52.857 C 212.937 50.996 211.942 49.276 210.329 48.348 L 210.329 48.348 Z " fill="rgb(146,99,193)"/><path d=" M 203.187 52.546 L 172.277 34.711 C 171.577 34.307 170.715 34.308 170.015 34.712 C 169.316 35.116 168.885 35.863 168.885 36.671 L 168.885 73.671 C 168.885 75.473 169.846 77.138 171.406 78.04 L 202.313 95.908 C 203.03 96.323 203.915 96.324 204.632 95.91 C 205.35 95.495 205.792 94.73 205.792 93.901 L 205.792 57.056 C 205.792 55.195 204.799 53.476 203.187 52.546 L 203.187 52.546 Z " fill="rgb(132,68,178)"/><g><path d=" M 204.623 95.912 L 204.579 95.939 L 204.579 95.932 C 204.591 95.924 204.608 95.92 204.623 95.912 Z " fill="rgb(187,206,225)"/><path d=" M 205.791 93.903 L 205.791 57.058 C 205.779 56.45 205.659 55.849 205.436 55.283 L 212.607 51.153 C 212.811 51.699 212.92 52.276 212.931 52.859 L 212.931 89.703 C 212.934 90.505 212.516 91.251 211.831 91.668 L 211.831 91.673 L 211.784 91.7 L 211.747 91.722 L 204.631 95.904 C 205.35 95.495 205.794 94.73 205.791 93.903 Z " fill="rgb(114,49,163)"/></g><g><path d=" M 179.004 50.205 C 178.596 50.795 178.417 51.512 178.498 52.224 L 178.484 56.645 L 178.484 56.759 Q 178.484 58.021 177.676 58.111 C 176.851 58.084 176.051 57.816 175.376 57.34 L 175.368 60.418 C 176.247 60.895 177.025 61.537 177.661 62.308 C 178.194 62.993 178.476 63.84 178.461 64.708 L 178.448 69.079 C 178.424 69.974 178.592 70.863 178.942 71.687 C 179.318 72.494 179.855 73.217 180.519 73.81 C 181.436 74.62 182.439 75.326 183.51 75.916 L 183.517 73.002 C 182.854 72.642 182.284 72.133 181.85 71.515 C 181.55 70.985 181.4 70.384 181.417 69.775 L 181.428 65.588 L 181.428 65.424 C 181.428 63.753 180.515 62.236 178.66 60.846 L 178.66 60.682 C 180.492 61.431 181.413 60.916 181.445 59.146 L 181.457 54.959 C 181.457 54.283 181.612 53.878 181.909 53.73 C 182.206 53.582 182.759 53.738 183.57 54.177 L 183.579 51.263 C 182.655 50.681 181.654 50.231 180.605 49.926 C 180.061 49.716 179.445 49.823 179.004 50.205 Z " fill="rgb(255,255,255)"/><path d=" M 196.286 68.852 C 195.774 68.207 195.499 67.405 195.507 66.582 L 195.507 66.47 L 195.519 62.049 C 195.56 60.731 195.161 59.438 194.385 58.372 C 193.29 57.073 191.95 56.003 190.441 55.222 L 190.434 58.134 C 191.095 58.493 191.666 58.998 192.102 59.611 C 192.406 60.14 192.556 60.743 192.535 61.352 L 192.523 65.537 C 192.631 67.481 193.671 69.253 195.317 70.294 L 195.317 70.46 C 194.679 70.114 193.928 70.039 193.234 70.253 C 192.751 70.489 192.506 71.016 192.504 71.853 L 192.504 71.977 L 192.493 76.162 C 192.493 76.839 192.346 77.262 192.051 77.406 C 191.756 77.55 191.191 77.394 190.38 76.956 L 190.372 79.87 C 192.237 80.947 193.55 81.407 194.32 81.27 C 195.09 81.133 195.468 80.34 195.473 78.905 L 195.485 74.534 C 195.485 73.621 195.758 73.134 196.276 73.049 C 197.102 73.061 197.905 73.326 198.576 73.808 L 198.584 70.73 C 197.705 70.257 196.925 69.619 196.286 68.852 Z " fill="rgb(255,255,255)"/></g></g><g><path d=" M 148.984 18.929 L 122.175 3.458 C 121.334 2.978 120.292 3.019 119.492 3.565 L 119.492 3.565 L 113.606 6.965 L 116.342 10.675 L 117.362 11.844 L 117.362 38.399 C 117.362 39.98 118.205 41.441 119.573 42.233 L 139.637 53.833 L 139.843 54.947 L 143.938 60.684 L 150.238 56.984 L 150.27 56.966 L 150.313 56.943 L 150.313 56.943 C 150.912 56.575 151.276 55.92 151.272 55.217 L 151.272 22.887 C 151.273 21.253 150.4 19.744 148.984 18.929 Z " fill="rgb(244,118,122)"/><path d=" M 142.718 22.611 L 115.593 6.961 C 114.979 6.607 114.222 6.608 113.608 6.962 C 112.995 7.317 112.616 7.972 112.616 8.681 L 112.616 41.15 C 112.617 42.731 113.46 44.191 114.829 44.982 L 141.949 60.662 C 142.579 61.026 143.355 61.027 143.985 60.663 C 144.615 60.3 145.003 59.628 145.003 58.901 L 145.003 26.568 C 145.003 24.936 144.132 23.427 142.718 22.611 L 142.718 22.611 Z " fill="rgb(237,85,97)"/><g><path d=" M 143.977 60.666 L 143.937 60.689 L 143.937 60.684 C 143.951 60.679 143.964 60.673 143.977 60.666 L 143.977 60.666 Z " fill="rgb(187,206,225)"/><path d=" M 145.002 58.901 L 145.002 26.569 C 144.992 26.035 144.887 25.507 144.693 25.01 L 150.984 21.387 C 151.164 21.867 151.26 22.374 151.27 22.887 L 151.27 55.217 C 151.274 55.921 150.91 56.575 150.31 56.942 L 150.31 56.947 L 150.268 56.97 L 150.236 56.988 L 143.993 60.658 C 144.621 60.296 145.006 59.626 145.002 58.901 L 145.002 58.901 Z " fill="rgb(216,57,90)"/></g><g><path d=" M 119.063 22.503 L 115.763 20.603 L 115.729 32.469 L 117.918 33.733 L 117.93 29.516 L 118.87 30.058 Q 120.789 31.167 121.839 30.758 C 122.533 30.477 122.883 29.706 122.886 28.426 C 122.903 27.241 122.566 26.079 121.918 25.087 C 121.183 24.013 120.204 23.128 119.063 22.503 L 119.063 22.503 Z  M 120.172 28.279 C 119.632 28.348 119.087 28.199 118.658 27.864 L 117.939 27.449 L 117.949 23.926 L 118.949 24.501 C 119.476 24.785 119.927 25.191 120.265 25.685 C 120.55 26.151 120.695 26.69 120.682 27.236 C 120.679 27.822 120.508 28.165 120.172 28.278 L 120.172 28.279 Z " fill="rgb(255,255,255)"/><path d=" M 130.538 33.786 L 126.448 31.425 L 126.461 26.774 L 124.272 25.51 L 124.238 37.377 L 126.427 38.641 L 126.442 33.519 L 130.532 35.88 L 130.518 41.002 L 132.702 42.263 L 132.736 30.396 L 130.552 29.135 L 130.538 33.786 Z " fill="rgb(255,255,255)"/><path d=" M 140.918 36.05 C 140.181 34.977 139.201 34.093 138.059 33.469 L 134.759 31.569 L 134.725 43.435 L 136.914 44.7 L 136.926 40.483 L 137.864 41.025 Q 139.786 42.136 140.83 41.725 C 141.53 41.446 141.879 40.675 141.882 39.395 C 141.901 38.209 141.565 37.044 140.918 36.05 L 140.918 36.05 Z  M 139.168 39.25 C 138.628 39.318 138.083 39.169 137.654 38.835 L 136.935 38.42 L 136.945 34.896 L 137.945 35.473 C 138.472 35.756 138.924 36.162 139.261 36.656 C 139.545 37.123 139.689 37.662 139.677 38.208 C 139.675 38.788 139.505 39.137 139.168 39.246 L 139.168 39.25 Z " fill="rgb(255,255,255)"/></g></g><g><path d=" M 273.486 207.388 L 234.078 229.713 L 208.966 215.183 L 248.366 192.864 L 273.486 207.388 Z " fill="rgb(237,85,97)"/><g><path d=" M 241.795 229.176 L 241.795 230.055 L 281.203 207.494 L 281.203 206.851 L 241.795 229.176 Z " fill="rgb(240,206,201)"/><path d=" M 281.203 206.851 L 241.795 229.172 L 216.679 214.643 L 256.084 192.324 L 281.203 206.851 Z " fill="rgb(255,251,240)"/><path d=" M 241.795 229.176 L 241.795 230.055 L 216.679 215.524 L 216.679 214.648 L 241.795 229.176 Z " fill="rgb(245,221,216)"/></g><path d=" M 255.812 194.711 L 270.986 203.462 L 270.321 203.839 L 255.147 195.088 L 255.812 194.711 Z " fill="rgb(223,186,184)"/><path d=" M 254.237 195.605 L 269.411 204.356 L 268.746 204.733 L 253.572 195.982 L 254.237 195.605 Z " fill="rgb(223,186,184)"/><path d=" M 250.567 197.681 L 271.461 209.741 L 270.796 210.118 L 249.902 198.058 L 250.567 197.681 Z " fill="rgb(223,186,184)"/><path d=" M 249.122 198.503 L 270.016 210.563 L 269.351 210.939 L 248.457 198.879 L 249.122 198.503 Z " fill="rgb(223,186,184)"/><path d=" M 247.675 199.324 L 268.568 211.386 L 267.903 211.762 L 247.009 199.702 L 247.675 199.324 Z " fill="rgb(223,186,184)"/><path d=" M 246.229 200.144 L 267.123 212.204 L 266.458 212.581 L 245.564 200.521 L 246.229 200.144 Z " fill="rgb(223,186,184)"/><path d=" M 244.783 200.965 L 265.677 213.025 L 265.012 213.401 L 244.118 201.341 L 244.783 200.965 Z " fill="rgb(223,186,184)"/><path d=" M 243.336 201.786 L 264.23 213.846 L 263.565 214.222 L 242.671 202.162 L 243.336 201.786 Z " fill="rgb(223,186,184)"/><path d=" M 241.889 202.606 L 262.783 214.666 L 262.118 215.042 L 241.224 202.982 L 241.889 202.606 Z " fill="rgb(223,186,184)"/><path d=" M 240.444 203.428 L 261.338 215.488 L 260.673 215.864 L 239.779 203.804 L 240.444 203.428 Z " fill="rgb(223,186,184)"/><path d=" M 238.997 204.248 L 259.891 216.308 L 259.226 216.685 L 238.332 204.625 L 238.997 204.248 Z " fill="rgb(223,186,184)"/><path d=" M 237.551 205.069 L 258.445 217.129 L 257.78 217.506 L 236.886 205.446 L 237.551 205.069 Z " fill="rgb(223,186,184)"/><path d=" M 236.105 205.891 L 257 217.951 L 256.334 218.327 L 235.44 206.267 L 236.105 205.891 Z " fill="rgb(223,186,184)"/><path d=" M 234.658 206.711 L 255.552 218.771 L 254.887 219.147 L 233.993 207.087 L 234.658 206.711 Z " fill="rgb(223,186,184)"/><path d=" M 233.213 207.532 L 254.107 219.592 L 253.442 219.969 L 232.548 207.909 L 233.213 207.532 Z " fill="rgb(223,186,184)"/><path d=" M 231.77 208.353 L 252.664 220.413 L 251.999 220.79 L 231.105 208.73 L 231.77 208.353 Z " fill="rgb(223,186,184)"/><path d=" M 230.32 209.174 L 251.214 221.234 L 250.549 221.611 L 229.655 209.551 L 230.32 209.174 Z " fill="rgb(223,186,184)"/></g><g><path d=" M 205.584 222.44 L 202.605 222.44 L 202.605 225.653 L 205.584 225.653 C 206.693 225.655 207.591 226.553 207.593 227.662 L 207.593 232.882 C 207.591 233.991 206.693 234.889 205.584 234.891 L 201.215 234.891 L 201.215 238.104 L 205.584 238.104 C 208.466 238.1 210.802 235.764 210.806 232.882 L 210.806 227.662 C 210.803 224.779 208.467 222.443 205.584 222.44 L 205.584 222.44 Z " fill="rgb(167,188,206)"/><path d=" M 204.464 220.667 L 204.464 238.767 C 204.464 241.572 200.284 243.845 195.125 243.845 C 189.966 243.845 185.786 241.572 185.786 238.767 L 185.786 220.667 L 204.464 220.667 Z " fill="rgb(187,206,225)"/><path d=" M 185.786 220.663 C 185.786 223.463 189.966 225.741 195.125 225.741 C 200.284 225.741 204.464 223.466 204.464 220.663 C 204.464 217.86 200.284 215.585 195.125 215.585 C 189.966 215.585 185.786 217.858 185.786 220.663 Z " fill="rgb(255,255,255)"/><path d=" M 187.644 220.6 C 187.644 222.793 190.993 224.571 195.124 224.571 C 199.255 224.571 202.604 222.793 202.604 220.6 C 202.604 218.407 199.255 216.629 195.124 216.629 C 190.993 216.629 187.644 218.407 187.644 220.6 Z " fill="rgb(167,188,206)"/><path d=" M 195.125 219.228 C 191.851 219.228 189.078 220.345 188.063 221.899 C 189.078 223.453 191.852 224.57 195.125 224.57 C 198.398 224.57 201.172 223.453 202.187 221.899 C 201.172 220.345 198.397 219.228 195.125 219.228 Z " fill="rgb(157,77,54)"/><path d=" M 198.654 225.364 L 198.654 243.464 C 200.264 243.156 201.775 242.46 203.054 241.435 L 203.054 223.335 C 201.775 224.36 200.264 225.056 198.654 225.364 Z " fill="rgb(167,188,206)"/></g><g><g><path d=" M 228.508 305.477 L 205.018 291.841 L 205.018 300.63 L 228.51 314.23 L 228.508 305.477 Z " fill="rgb(187,206,225)"/><path d=" M 229.297 277.888 L 205.018 291.841 L 228.508 305.477 L 252.821 291.504 L 229.297 277.888 Z " fill="rgb(255,255,255)"/><path d=" M 252.827 291.503 L 228.513 305.477 L 228.513 314.228 L 252.827 300.157 L 252.827 291.503 Z " fill="rgb(167,188,206)"/></g><path d=" M 228.508 291.1 L 205.018 277.464 L 205.018 286.253 L 228.51 299.853 L 228.508 291.1 Z " fill="rgb(187,206,225)"/><path d=" M 229.297 263.512 L 205.018 277.465 L 228.508 291.1 L 252.821 277.127 L 229.297 263.512 Z " fill="rgb(255,255,255)"/><path d=" M 252.827 277.127 L 228.513 291.101 L 228.513 299.852 L 252.827 285.785 L 252.827 277.127 Z " fill="rgb(167,188,206)"/><g><path d=" M 235.838 282.487 L 234.361 281.636 C 233.251 282.062 232.09 282.342 230.907 282.467 L 230.914 283.667 L 227.331 283.667 L 227.323 282.467 C 226.139 282.34 224.976 282.061 223.864 281.636 L 222.397 282.487 L 219.853 281.018 L 221.32 280.166 C 220.667 279.642 220.168 278.951 219.875 278.166 L 217.798 278.166 L 217.786 276.088 L 219.864 276.088 C 220.148 275.305 220.64 274.614 221.286 274.088 L 219.812 273.237 L 222.338 271.77 L 223.812 272.622 C 224.922 272.197 226.082 271.918 227.264 271.792 L 227.259 270.592 L 230.844 270.592 L 230.844 271.792 C 232.029 271.917 233.194 272.196 234.307 272.622 L 235.772 271.769 L 238.316 273.238 L 236.851 274.091 C 237.504 274.615 238.003 275.306 238.295 276.091 L 240.376 276.091 L 240.386 278.167 L 238.307 278.167 C 238.025 278.951 237.533 279.643 236.885 280.167 L 238.362 281.018 L 235.838 282.487 Z  M 225.773 279.053 C 227.862 280.117 230.333 280.117 232.422 279.053 C 234.252 277.989 234.242 276.265 232.401 275.201 C 230.312 274.139 227.841 274.139 225.752 275.201 C 223.922 276.265 223.93 277.989 225.774 279.053" fill="rgb(28,117,188)"/></g></g></g></svg>